<?xml version="1.0" encoding="utf-8"?>
<!-- Generator: Adobe Illustrator 14.0.0, SVG Export Plug-In . SVG Version: 6.00 Build 43363)  -->
<!DOCTYPE svg PUBLIC "-//W3C//DTD SVG 1.1//EN" "http://www.w3.org/Graphics/SVG/1.1/DTD/svg11.dtd">
<svg version="1.1" id="レイヤー_1" xmlns="http://www.w3.org/2000/svg" xmlns:xlink="http://www.w3.org/1999/xlink" x="0px"
	 y="0px" width="458px" height="95px" viewBox="0 0 458 95" enable-background="new 0 0 458 95" xml:space="preserve">
<g>
	<path fill="#3312BD" d="M114.551,245.265v0.672h-9.939v-14.912h9.749v0.672h-9.028v6.28h7.905v0.672h-7.905v6.616H114.551z"/>
	<path d="M126.918,245.937h-0.721v-6.091c0-1.498-0.212-2.594-0.636-3.287c-0.424-0.693-1.102-1.04-2.034-1.04
		c-0.509,0-1.007,0.091-1.494,0.273c-0.487,0.182-0.94,0.434-1.356,0.756c-0.417,0.322-0.784,0.7-1.102,1.134
		c-0.318,0.435-0.547,0.911-0.688,1.428v6.826h-0.721v-10.921h0.678v2.73c0.226-0.434,0.512-0.83,0.858-1.187
		c0.346-0.357,0.731-0.662,1.155-0.914s0.872-0.448,1.346-0.588c0.473-0.14,0.957-0.21,1.452-0.21c1.158,0,1.992,0.409,2.5,1.229
		c0.509,0.819,0.763,2.048,0.763,3.686V245.937z"/>
	<path d="M135.717,245.433c-0.028,0.014-0.103,0.052-0.223,0.115s-0.275,0.133-0.466,0.21c-0.19,0.077-0.41,0.144-0.657,0.2
		c-0.248,0.056-0.519,0.084-0.816,0.084c-0.269,0-0.526-0.042-0.773-0.126c-0.248-0.084-0.463-0.203-0.646-0.357
		c-0.184-0.154-0.332-0.343-0.445-0.567c-0.113-0.224-0.169-0.476-0.169-0.756v-8.59h-1.568v-0.63h1.568v-3.76h0.72v3.76h2.628v0.63
		h-2.628v8.485c0.028,0.406,0.184,0.714,0.466,0.924c0.282,0.21,0.607,0.315,0.975,0.315c0.226,0,0.441-0.024,0.646-0.074
		c0.205-0.049,0.389-0.105,0.551-0.168c0.162-0.063,0.289-0.123,0.381-0.179c0.092-0.056,0.151-0.091,0.18-0.105L135.717,245.433z"
		/>
	<path d="M142.891,246.147c-0.749,0-1.449-0.15-2.098-0.452c-0.65-0.301-1.219-0.714-1.706-1.239
		c-0.487-0.525-0.869-1.134-1.145-1.828c-0.275-0.693-0.413-1.431-0.413-2.216c0-0.77,0.134-1.491,0.403-2.163
		c0.268-0.672,0.643-1.26,1.123-1.764c0.48-0.504,1.039-0.903,1.674-1.197s1.328-0.441,2.077-0.441c0.749,0,1.448,0.147,2.098,0.441
		c0.649,0.294,1.215,0.697,1.695,1.208c0.48,0.511,0.861,1.11,1.144,1.796s0.424,1.415,0.424,2.184c0,0.028-0.003,0.084-0.01,0.168
		c-0.007,0.084-0.011,0.133-0.011,0.147h-9.875c0.042,0.672,0.198,1.299,0.466,1.879c0.268,0.582,0.611,1.082,1.028,1.502
		c0.417,0.42,0.894,0.753,1.43,0.998c0.537,0.245,1.109,0.368,1.717,0.368c0.41,0,0.809-0.053,1.197-0.158s0.752-0.255,1.091-0.452
		c0.339-0.196,0.636-0.43,0.89-0.704c0.254-0.273,0.459-0.57,0.615-0.893l0.657,0.168c-0.155,0.378-0.385,0.732-0.688,1.061
		c-0.304,0.329-0.654,0.609-1.049,0.84s-0.826,0.413-1.292,0.546C143.866,246.081,143.385,246.147,142.891,246.147z
		 M147.447,240.182c-0.042-0.686-0.191-1.316-0.445-1.89c-0.254-0.574-0.59-1.071-1.006-1.491c-0.417-0.42-0.894-0.746-1.431-0.977
		s-1.116-0.347-1.738-0.347s-1.201,0.119-1.738,0.357c-0.537,0.238-1.01,0.567-1.419,0.987c-0.41,0.42-0.739,0.917-0.986,1.491
		s-0.392,1.197-0.434,1.869H147.447z"/>
	<path d="M156.679,235.688c-1.018,0.042-1.9,0.361-2.649,0.956c-0.749,0.595-1.271,1.404-1.568,2.426v6.868h-0.721v-10.921h0.699
		v2.772c0.382-0.77,0.89-1.4,1.526-1.891c0.636-0.49,1.314-0.777,2.035-0.861c0.141,0,0.268-0.003,0.381-0.011
		c0.113-0.007,0.212-0.01,0.297-0.01V235.688z"/>
	<path d="M165.044,246.147c-0.48,0-0.936-0.07-1.367-0.21c-0.431-0.14-0.834-0.329-1.208-0.567c-0.375-0.238-0.717-0.518-1.028-0.84
		c-0.311-0.322-0.58-0.665-0.805-1.029v6.91h-0.721v-15.395h0.678v2.268c0.226-0.35,0.494-0.675,0.805-0.977
		c0.311-0.301,0.653-0.56,1.028-0.777c0.374-0.217,0.763-0.385,1.166-0.504c0.403-0.119,0.816-0.178,1.24-0.178
		c0.777,0,1.491,0.161,2.141,0.483c0.649,0.322,1.208,0.749,1.674,1.281c0.466,0.532,0.83,1.138,1.092,1.816
		c0.261,0.68,0.392,1.369,0.392,2.069c0,0.756-0.124,1.478-0.371,2.164c-0.248,0.686-0.593,1.285-1.039,1.796
		c-0.445,0.511-0.979,0.92-1.6,1.229C166.5,245.993,165.808,246.147,165.044,246.147z M164.938,245.475
		c0.678,0,1.293-0.144,1.844-0.431c0.551-0.287,1.017-0.665,1.399-1.134c0.381-0.469,0.678-1.001,0.89-1.596
		c0.212-0.595,0.318-1.2,0.318-1.817c0-0.644-0.12-1.267-0.36-1.869c-0.241-0.602-0.569-1.134-0.986-1.596
		c-0.417-0.462-0.908-0.83-1.473-1.103s-1.173-0.41-1.822-0.41c-0.41,0-0.848,0.087-1.314,0.263s-0.901,0.406-1.303,0.693
		c-0.403,0.287-0.742,0.62-1.018,0.998c-0.275,0.378-0.434,0.777-0.477,1.197v3.76c0.183,0.42,0.424,0.815,0.72,1.187
		c0.297,0.371,0.632,0.693,1.007,0.966c0.374,0.273,0.78,0.49,1.219,0.651C164.02,245.395,164.472,245.475,164.938,245.475z"/>
	<path d="M178.869,235.688c-1.018,0.042-1.9,0.361-2.649,0.956c-0.749,0.595-1.271,1.404-1.568,2.426v6.868h-0.721v-10.921h0.699
		v2.772c0.382-0.77,0.89-1.4,1.526-1.891c0.636-0.49,1.314-0.777,2.035-0.861c0.141,0,0.268-0.003,0.381-0.011
		c0.113-0.007,0.212-0.01,0.297-0.01V235.688z"/>
	<path d="M182.106,232.369v-1.764h0.721v1.764H182.106z M182.106,245.937v-10.921h0.721v10.921H182.106z"/>
	<path d="M190.584,246.147c-0.848,0-1.639-0.14-2.374-0.42c-0.735-0.28-1.385-0.714-1.95-1.302l0.403-0.483
		c0.593,0.532,1.201,0.931,1.822,1.197c0.622,0.267,1.314,0.399,2.077,0.399c1.031,0,1.865-0.217,2.5-0.651
		c0.636-0.434,0.954-1.043,0.954-1.827c0-0.364-0.082-0.668-0.244-0.914c-0.163-0.245-0.399-0.455-0.71-0.63
		c-0.311-0.175-0.696-0.329-1.155-0.462c-0.459-0.133-0.985-0.27-1.579-0.41c-0.607-0.14-1.134-0.276-1.579-0.409
		c-0.445-0.133-0.816-0.291-1.113-0.473c-0.296-0.182-0.516-0.413-0.657-0.693c-0.142-0.28-0.212-0.637-0.212-1.071
		c0-0.546,0.106-1.015,0.318-1.407s0.498-0.717,0.858-0.977c0.36-0.259,0.777-0.452,1.25-0.578c0.473-0.126,0.978-0.189,1.515-0.189
		c0.89,0,1.656,0.147,2.299,0.441s1.113,0.665,1.41,1.113l-0.488,0.357c-0.311-0.42-0.767-0.742-1.367-0.966
		c-0.601-0.224-1.24-0.336-1.918-0.336c-0.438,0-0.848,0.045-1.229,0.137c-0.381,0.091-0.717,0.238-1.007,0.441
		s-0.519,0.458-0.688,0.767s-0.254,0.672-0.254,1.092c0,0.336,0.056,0.616,0.169,0.84c0.113,0.224,0.293,0.41,0.541,0.557
		c0.247,0.147,0.558,0.273,0.933,0.378c0.374,0.105,0.83,0.221,1.367,0.347c0.678,0.154,1.278,0.308,1.801,0.462
		c0.522,0.154,0.968,0.336,1.335,0.546s0.646,0.469,0.837,0.777c0.19,0.308,0.286,0.7,0.286,1.176c0,0.49-0.099,0.928-0.297,1.313
		c-0.198,0.385-0.477,0.718-0.837,0.998c-0.36,0.28-0.798,0.493-1.314,0.64C191.774,246.074,191.206,246.147,190.584,246.147z"/>
	<path d="M203.075,246.147c-0.749,0-1.449-0.15-2.098-0.452c-0.65-0.301-1.219-0.714-1.706-1.239
		c-0.487-0.525-0.869-1.134-1.145-1.828c-0.275-0.693-0.413-1.431-0.413-2.216c0-0.77,0.134-1.491,0.403-2.163
		c0.268-0.672,0.643-1.26,1.123-1.764c0.48-0.504,1.039-0.903,1.674-1.197s1.328-0.441,2.077-0.441c0.749,0,1.448,0.147,2.098,0.441
		c0.649,0.294,1.215,0.697,1.695,1.208c0.48,0.511,0.861,1.11,1.144,1.796s0.424,1.415,0.424,2.184c0,0.028-0.003,0.084-0.01,0.168
		c-0.007,0.084-0.011,0.133-0.011,0.147h-9.875c0.042,0.672,0.198,1.299,0.466,1.879c0.268,0.582,0.611,1.082,1.028,1.502
		c0.417,0.42,0.894,0.753,1.43,0.998c0.537,0.245,1.109,0.368,1.717,0.368c0.41,0,0.809-0.053,1.197-0.158s0.752-0.255,1.091-0.452
		c0.339-0.196,0.636-0.43,0.89-0.704c0.254-0.273,0.459-0.57,0.615-0.893l0.657,0.168c-0.155,0.378-0.385,0.732-0.688,1.061
		c-0.304,0.329-0.654,0.609-1.049,0.84s-0.826,0.413-1.292,0.546C204.05,246.081,203.569,246.147,203.075,246.147z M207.631,240.182
		c-0.042-0.686-0.191-1.316-0.445-1.89c-0.254-0.574-0.59-1.071-1.006-1.491c-0.417-0.42-0.894-0.746-1.431-0.977
		s-1.116-0.347-1.738-0.347s-1.201,0.119-1.738,0.357c-0.537,0.238-1.01,0.567-1.419,0.987c-0.41,0.42-0.739,0.917-0.986,1.491
		s-0.392,1.197-0.434,1.869H207.631z"/>
	<path fill="#3312BD" d="M219.35,245.937v-14.891h0.721v14.891H219.35z"/>
	<path fill="#040000" d="M233.716,245.937h-0.721v-6.091c0-1.498-0.212-2.594-0.636-3.287c-0.424-0.693-1.102-1.04-2.034-1.04
		c-0.509,0-1.007,0.091-1.494,0.273c-0.487,0.182-0.94,0.434-1.356,0.756c-0.417,0.322-0.784,0.7-1.102,1.134
		c-0.318,0.435-0.547,0.911-0.688,1.428v6.826h-0.721v-10.921h0.678v2.73c0.226-0.434,0.512-0.83,0.858-1.187
		c0.346-0.357,0.731-0.662,1.155-0.914s0.872-0.448,1.346-0.588c0.473-0.14,0.957-0.21,1.452-0.21c1.158,0,1.992,0.409,2.5,1.229
		c0.509,0.819,0.763,2.048,0.763,3.686V245.937z"/>
	<path fill="#040000" d="M242.515,245.433c-0.028,0.014-0.103,0.052-0.223,0.115s-0.275,0.133-0.466,0.21
		c-0.19,0.077-0.41,0.144-0.657,0.2c-0.248,0.056-0.519,0.084-0.816,0.084c-0.269,0-0.526-0.042-0.773-0.126
		c-0.248-0.084-0.463-0.203-0.646-0.357c-0.184-0.154-0.332-0.343-0.445-0.567c-0.113-0.224-0.169-0.476-0.169-0.756v-8.59h-1.568
		v-0.63h1.568v-3.76h0.72v3.76h2.628v0.63h-2.628v8.485c0.028,0.406,0.184,0.714,0.466,0.924c0.282,0.21,0.607,0.315,0.975,0.315
		c0.226,0,0.441-0.024,0.646-0.074c0.205-0.049,0.389-0.105,0.551-0.168c0.162-0.063,0.289-0.123,0.381-0.179
		c0.092-0.056,0.151-0.091,0.18-0.105L242.515,245.433z"/>
	<path fill="#040000" d="M249.689,246.147c-0.749,0-1.449-0.15-2.098-0.452c-0.65-0.301-1.219-0.714-1.706-1.239
		c-0.487-0.525-0.869-1.134-1.145-1.828c-0.275-0.693-0.413-1.431-0.413-2.216c0-0.77,0.134-1.491,0.403-2.163
		c0.268-0.672,0.643-1.26,1.123-1.764c0.48-0.504,1.039-0.903,1.674-1.197s1.328-0.441,2.077-0.441c0.749,0,1.448,0.147,2.098,0.441
		c0.649,0.294,1.215,0.697,1.695,1.208c0.48,0.511,0.861,1.11,1.144,1.796s0.424,1.415,0.424,2.184c0,0.028-0.003,0.084-0.01,0.168
		c-0.007,0.084-0.011,0.133-0.011,0.147h-9.875c0.042,0.672,0.198,1.299,0.466,1.879c0.268,0.582,0.611,1.082,1.028,1.502
		c0.417,0.42,0.894,0.753,1.43,0.998c0.537,0.245,1.109,0.368,1.717,0.368c0.41,0,0.809-0.053,1.197-0.158s0.752-0.255,1.091-0.452
		c0.339-0.196,0.636-0.43,0.89-0.704c0.254-0.273,0.459-0.57,0.615-0.893l0.657,0.168c-0.155,0.378-0.385,0.732-0.688,1.061
		c-0.304,0.329-0.654,0.609-1.049,0.84s-0.826,0.413-1.292,0.546C250.664,246.081,250.183,246.147,249.689,246.147z
		 M254.245,240.182c-0.042-0.686-0.191-1.316-0.445-1.89c-0.254-0.574-0.59-1.071-1.006-1.491c-0.417-0.42-0.894-0.746-1.431-0.977
		s-1.116-0.347-1.738-0.347s-1.201,0.119-1.738,0.357c-0.537,0.238-1.01,0.567-1.419,0.987c-0.41,0.42-0.739,0.917-0.986,1.491
		s-0.392,1.197-0.434,1.869H254.245z"/>
	<path fill="#040000" d="M258.592,230.605h0.699v13.463c0,0.406,0.127,0.728,0.382,0.966c0.254,0.238,0.586,0.357,0.996,0.357
		c0.155,0,0.343-0.018,0.562-0.053c0.219-0.035,0.42-0.087,0.604-0.158l0.17,0.588c-0.212,0.07-0.477,0.133-0.795,0.189
		s-0.59,0.084-0.816,0.084c-0.537,0-0.971-0.165-1.303-0.494c-0.332-0.329-0.498-0.773-0.498-1.333V230.605z"/>
	<path fill="#040000" d="M264.862,230.605h0.699v13.463c0,0.406,0.127,0.728,0.382,0.966c0.254,0.238,0.586,0.357,0.996,0.357
		c0.155,0,0.343-0.018,0.562-0.053c0.219-0.035,0.42-0.087,0.604-0.158l0.169,0.588c-0.212,0.07-0.477,0.133-0.795,0.189
		s-0.59,0.084-0.816,0.084c-0.537,0-0.971-0.165-1.303-0.494c-0.332-0.329-0.498-0.773-0.498-1.333V230.605z"/>
	<path fill="#040000" d="M271.189,232.369v-1.764h0.721v1.764H271.189z M271.189,245.937v-10.921h0.721v10.921H271.189z"/>
	<path fill="#040000" d="M280.999,246.126c-0.763,0-1.466-0.161-2.109-0.483c-0.643-0.322-1.197-0.746-1.664-1.271
		c-0.466-0.525-0.83-1.124-1.091-1.795c-0.262-0.672-0.392-1.358-0.392-2.059c0-0.742,0.124-1.452,0.371-2.132
		c0.247-0.679,0.597-1.281,1.049-1.806c0.452-0.525,0.992-0.945,1.621-1.26c0.628-0.315,1.317-0.472,2.066-0.472
		c0.494,0,0.954,0.07,1.377,0.21s0.819,0.329,1.187,0.567c0.367,0.238,0.707,0.518,1.018,0.84c0.311,0.322,0.593,0.665,0.848,1.029
		v-2.478h0.678v11.257c0,0.742-0.138,1.383-0.413,1.922s-0.646,0.99-1.112,1.354c-0.466,0.364-1.003,0.634-1.611,0.809
		c-0.607,0.175-1.236,0.263-1.886,0.263s-1.226-0.063-1.727-0.189s-0.943-0.301-1.324-0.525c-0.382-0.224-0.717-0.494-1.007-0.809
		c-0.29-0.315-0.541-0.662-0.752-1.04l0.53-0.294c0.452,0.784,1.06,1.351,1.823,1.701c0.763,0.35,1.582,0.525,2.458,0.525
		c0.579,0,1.13-0.077,1.653-0.231c0.522-0.154,0.978-0.389,1.367-0.704c0.389-0.315,0.699-0.704,0.933-1.166
		c0.233-0.462,0.35-1.001,0.35-1.617v-2.562c-0.226,0.364-0.498,0.693-0.816,0.987s-0.661,0.546-1.028,0.756
		c-0.368,0.21-0.756,0.375-1.166,0.494C281.818,246.066,281.408,246.126,280.999,246.126z M281.126,245.475
		c0.494,0,0.978-0.095,1.452-0.284c0.473-0.189,0.901-0.434,1.282-0.735c0.381-0.301,0.696-0.637,0.943-1.008
		s0.392-0.746,0.435-1.124v-3.76c-0.169-0.434-0.406-0.84-0.71-1.218c-0.304-0.378-0.646-0.7-1.028-0.966s-0.792-0.476-1.229-0.63
		c-0.438-0.154-0.883-0.231-1.335-0.231c-0.707,0-1.335,0.147-1.886,0.441c-0.551,0.294-1.018,0.68-1.399,1.155
		c-0.381,0.476-0.675,1.012-0.879,1.607c-0.205,0.595-0.307,1.194-0.307,1.795c0,0.659,0.12,1.285,0.36,1.88
		c0.24,0.595,0.572,1.121,0.996,1.575c0.424,0.455,0.918,0.819,1.483,1.092S280.476,245.475,281.126,245.475z"/>
	<path fill="#040000" d="M295.119,246.147c-0.749,0-1.449-0.15-2.098-0.452c-0.65-0.301-1.219-0.714-1.706-1.239
		c-0.487-0.525-0.869-1.134-1.145-1.828c-0.275-0.693-0.413-1.431-0.413-2.216c0-0.77,0.134-1.491,0.403-2.163
		c0.268-0.672,0.643-1.26,1.123-1.764c0.48-0.504,1.039-0.903,1.674-1.197s1.328-0.441,2.077-0.441c0.749,0,1.448,0.147,2.098,0.441
		c0.649,0.294,1.215,0.697,1.695,1.208c0.48,0.511,0.861,1.11,1.144,1.796s0.424,1.415,0.424,2.184c0,0.028-0.003,0.084-0.01,0.168
		c-0.007,0.084-0.011,0.133-0.011,0.147h-9.875c0.042,0.672,0.198,1.299,0.466,1.879c0.268,0.582,0.611,1.082,1.028,1.502
		c0.417,0.42,0.894,0.753,1.43,0.998c0.537,0.245,1.109,0.368,1.717,0.368c0.41,0,0.809-0.053,1.197-0.158s0.752-0.255,1.091-0.452
		c0.339-0.196,0.636-0.43,0.89-0.704c0.254-0.273,0.459-0.57,0.615-0.893l0.657,0.168c-0.155,0.378-0.385,0.732-0.688,1.061
		c-0.304,0.329-0.654,0.609-1.049,0.84s-0.826,0.413-1.292,0.546C296.094,246.081,295.613,246.147,295.119,246.147z
		 M299.675,240.182c-0.042-0.686-0.191-1.316-0.445-1.89c-0.254-0.574-0.59-1.071-1.006-1.491c-0.417-0.42-0.894-0.746-1.431-0.977
		s-1.116-0.347-1.738-0.347s-1.201,0.119-1.738,0.357c-0.537,0.238-1.01,0.567-1.419,0.987c-0.41,0.42-0.739,0.917-0.986,1.491
		s-0.392,1.197-0.434,1.869H299.675z"/>
	<path fill="#040000" d="M312.721,245.937H312v-6.091c0-1.498-0.212-2.594-0.636-3.287c-0.424-0.693-1.102-1.04-2.034-1.04
		c-0.509,0-1.007,0.091-1.494,0.273c-0.487,0.182-0.94,0.434-1.356,0.756c-0.417,0.322-0.784,0.7-1.102,1.134
		c-0.318,0.435-0.547,0.911-0.688,1.428v6.826h-0.721v-10.921h0.678v2.73c0.226-0.434,0.512-0.83,0.858-1.187
		c0.346-0.357,0.731-0.662,1.155-0.914s0.872-0.448,1.346-0.588c0.473-0.14,0.957-0.21,1.452-0.21c1.158,0,1.992,0.409,2.5,1.229
		c0.509,0.819,0.763,2.048,0.763,3.686V245.937z"/>
	<path fill="#040000" d="M316.44,240.434c0-0.784,0.134-1.515,0.403-2.195c0.268-0.679,0.643-1.271,1.123-1.774
		c0.48-0.504,1.049-0.9,1.706-1.187c0.657-0.287,1.367-0.43,2.13-0.43c0.96,0,1.812,0.22,2.553,0.661
		c0.742,0.441,1.304,1.047,1.685,1.817l-0.721,0.252c-0.339-0.644-0.83-1.148-1.473-1.512c-0.643-0.364-1.346-0.546-2.109-0.546
		c-0.636,0-1.232,0.126-1.791,0.378s-1.046,0.599-1.462,1.04c-0.417,0.441-0.742,0.963-0.975,1.565
		c-0.233,0.602-0.35,1.247-0.35,1.932c0,0.687,0.124,1.334,0.371,1.943c0.247,0.609,0.579,1.145,0.996,1.607
		c0.417,0.462,0.904,0.826,1.462,1.092c0.558,0.266,1.147,0.399,1.77,0.399c0.41,0,0.816-0.06,1.218-0.179
		c0.403-0.119,0.773-0.276,1.113-0.473c0.339-0.196,0.632-0.423,0.879-0.683c0.247-0.259,0.413-0.536,0.498-0.83l0.699,0.21
		c-0.127,0.378-0.332,0.729-0.614,1.05c-0.283,0.322-0.618,0.599-1.007,0.83s-0.816,0.413-1.282,0.546
		c-0.466,0.133-0.947,0.199-1.441,0.199c-0.749,0-1.448-0.15-2.098-0.452c-0.65-0.301-1.218-0.71-1.706-1.229
		c-0.487-0.518-0.872-1.124-1.155-1.817C316.581,241.957,316.44,241.219,316.44,240.434z"/>
	<path fill="#040000" d="M334.259,246.147c-0.749,0-1.449-0.15-2.098-0.452c-0.65-0.301-1.219-0.714-1.706-1.239
		c-0.487-0.525-0.869-1.134-1.145-1.828c-0.275-0.693-0.413-1.431-0.413-2.216c0-0.77,0.134-1.491,0.403-2.163
		c0.268-0.672,0.643-1.26,1.123-1.764c0.48-0.504,1.039-0.903,1.674-1.197s1.328-0.441,2.077-0.441c0.749,0,1.448,0.147,2.098,0.441
		c0.649,0.294,1.215,0.697,1.695,1.208c0.48,0.511,0.861,1.11,1.144,1.796s0.424,1.415,0.424,2.184c0,0.028-0.003,0.084-0.01,0.168
		c-0.007,0.084-0.011,0.133-0.011,0.147h-9.875c0.042,0.672,0.198,1.299,0.466,1.879c0.268,0.582,0.611,1.082,1.028,1.502
		c0.417,0.42,0.894,0.753,1.43,0.998c0.537,0.245,1.109,0.368,1.717,0.368c0.41,0,0.809-0.053,1.197-0.158s0.752-0.255,1.091-0.452
		c0.339-0.196,0.636-0.43,0.89-0.704c0.254-0.273,0.459-0.57,0.615-0.893l0.657,0.168c-0.155,0.378-0.385,0.732-0.688,1.061
		c-0.304,0.329-0.654,0.609-1.049,0.84s-0.826,0.413-1.292,0.546C335.233,246.081,334.753,246.147,334.259,246.147z
		 M338.815,240.182c-0.042-0.686-0.191-1.316-0.445-1.89c-0.254-0.574-0.59-1.071-1.006-1.491c-0.417-0.42-0.894-0.746-1.431-0.977
		s-1.116-0.347-1.738-0.347s-1.201,0.119-1.738,0.357c-0.537,0.238-1.01,0.567-1.419,0.987c-0.41,0.42-0.739,0.917-0.986,1.491
		s-0.392,1.197-0.434,1.869H338.815z"/>
	<path fill="#3312BD" d="M364.415,245.937v-13.484l-6.336,10.585h-0.487l-6.336-10.585v13.484h-0.721v-14.912h0.678l6.633,11.11
		l6.612-11.11h0.678v14.912H364.415z"/>
	<path d="M372.715,246.147c-0.509,0-0.982-0.087-1.42-0.263c-0.438-0.175-0.82-0.413-1.145-0.714
		c-0.325-0.301-0.58-0.654-0.763-1.061c-0.184-0.406-0.276-0.847-0.276-1.323c0-0.462,0.113-0.885,0.339-1.271
		c0.226-0.385,0.541-0.718,0.943-0.998c0.403-0.28,0.883-0.497,1.441-0.651c0.558-0.154,1.176-0.231,1.854-0.231
		c0.607,0,1.229,0.049,1.865,0.147c0.636,0.098,1.201,0.245,1.696,0.441v-1.176c0-1.092-0.315-1.963-0.943-2.615
		c-0.629-0.651-1.473-0.977-2.532-0.977c-0.537,0-1.106,0.116-1.706,0.347c-0.601,0.231-1.211,0.563-1.833,0.998l-0.339-0.525
		c1.427-0.952,2.734-1.428,3.921-1.428c1.285,0,2.299,0.378,3.041,1.134c0.742,0.756,1.112,1.792,1.112,3.108v5.713
		c0,0.308,0.127,0.462,0.381,0.462v0.672c-0.042,0.014-0.099,0.021-0.169,0.021c-0.24,0-0.449-0.087-0.625-0.263
		c-0.177-0.175-0.265-0.388-0.265-0.641v-0.966c-0.495,0.658-1.148,1.166-1.96,1.522
		C374.52,245.969,373.647,246.147,372.715,246.147z M372.821,245.538c0.89,0,1.702-0.165,2.437-0.494
		c0.734-0.329,1.285-0.773,1.653-1.333c0.226-0.294,0.339-0.574,0.339-0.84v-2.058c-1.088-0.42-2.261-0.63-3.518-0.63
		c-1.173,0-2.116,0.235-2.829,0.704c-0.714,0.469-1.07,1.096-1.07,1.88c0,0.392,0.078,0.756,0.233,1.092
		c0.155,0.336,0.363,0.63,0.625,0.882c0.261,0.252,0.575,0.448,0.943,0.588C372.001,245.468,372.397,245.538,372.821,245.538z"/>
	<path d="M391.169,245.937h-0.721v-6.091c0-1.498-0.212-2.594-0.636-3.287c-0.424-0.693-1.102-1.04-2.034-1.04
		c-0.509,0-1.007,0.091-1.494,0.273c-0.487,0.182-0.94,0.434-1.356,0.756c-0.417,0.322-0.784,0.7-1.102,1.134
		c-0.318,0.435-0.547,0.911-0.688,1.428v6.826h-0.721v-10.921h0.678v2.73c0.226-0.434,0.512-0.83,0.858-1.187
		c0.346-0.357,0.731-0.662,1.155-0.914s0.872-0.448,1.346-0.588c0.473-0.14,0.957-0.21,1.452-0.21c1.158,0,1.992,0.409,2.5,1.229
		c0.509,0.819,0.763,2.048,0.763,3.686V245.937z"/>
	<path d="M398.222,246.147c-0.509,0-0.982-0.087-1.42-0.263c-0.438-0.175-0.82-0.413-1.145-0.714
		c-0.325-0.301-0.58-0.654-0.763-1.061c-0.184-0.406-0.276-0.847-0.276-1.323c0-0.462,0.113-0.885,0.339-1.271
		c0.226-0.385,0.541-0.718,0.943-0.998c0.403-0.28,0.883-0.497,1.441-0.651c0.558-0.154,1.176-0.231,1.854-0.231
		c0.607,0,1.229,0.049,1.865,0.147c0.636,0.098,1.201,0.245,1.695,0.441v-1.176c0-1.092-0.314-1.963-0.943-2.615
		c-0.629-0.651-1.473-0.977-2.532-0.977c-0.537,0-1.106,0.116-1.706,0.347c-0.601,0.231-1.211,0.563-1.833,0.998l-0.339-0.525
		c1.427-0.952,2.734-1.428,3.921-1.428c1.285,0,2.299,0.378,3.041,1.134c0.741,0.756,1.112,1.792,1.112,3.108v5.713
		c0,0.308,0.127,0.462,0.382,0.462v0.672c-0.043,0.014-0.1,0.021-0.17,0.021c-0.24,0-0.448-0.087-0.625-0.263
		c-0.177-0.175-0.265-0.388-0.265-0.641v-0.966c-0.495,0.658-1.148,1.166-1.96,1.522
		C400.027,245.969,399.154,246.147,398.222,246.147z M398.328,245.538c0.89,0,1.702-0.165,2.437-0.494
		c0.734-0.329,1.286-0.773,1.653-1.333c0.226-0.294,0.339-0.574,0.339-0.84v-2.058c-1.088-0.42-2.26-0.63-3.518-0.63
		c-1.173,0-2.116,0.235-2.829,0.704c-0.714,0.469-1.07,1.096-1.07,1.88c0,0.392,0.078,0.756,0.233,1.092
		c0.155,0.336,0.363,0.63,0.625,0.882c0.261,0.252,0.575,0.448,0.943,0.588C397.508,245.468,397.904,245.538,398.328,245.538z"/>
	<path d="M412.405,246.126c-0.763,0-1.466-0.161-2.108-0.483c-0.643-0.322-1.197-0.746-1.663-1.271
		c-0.467-0.525-0.83-1.124-1.092-1.795c-0.262-0.672-0.392-1.358-0.392-2.059c0-0.742,0.123-1.452,0.37-2.132
		c0.247-0.679,0.597-1.281,1.049-1.806c0.452-0.525,0.993-0.945,1.622-1.26c0.628-0.315,1.316-0.472,2.065-0.472
		c0.495,0,0.954,0.07,1.378,0.21s0.819,0.329,1.187,0.567c0.367,0.238,0.706,0.518,1.018,0.84c0.311,0.322,0.593,0.665,0.848,1.029
		v-2.478h0.678v11.257c0,0.742-0.138,1.383-0.413,1.922s-0.646,0.99-1.112,1.354c-0.467,0.364-1.004,0.634-1.61,0.809
		c-0.608,0.175-1.237,0.263-1.887,0.263s-1.226-0.063-1.727-0.189c-0.502-0.126-0.943-0.301-1.325-0.525
		c-0.381-0.224-0.717-0.494-1.006-0.809c-0.29-0.315-0.541-0.662-0.753-1.04l0.53-0.294c0.451,0.784,1.06,1.351,1.822,1.701
		s1.582,0.525,2.458,0.525c0.579,0,1.13-0.077,1.653-0.231c0.522-0.154,0.978-0.389,1.367-0.704
		c0.388-0.315,0.699-0.704,0.932-1.166c0.233-0.462,0.35-1.001,0.35-1.617v-2.562c-0.226,0.364-0.498,0.693-0.815,0.987
		c-0.318,0.294-0.661,0.546-1.028,0.756s-0.756,0.375-1.165,0.494C413.225,246.066,412.815,246.126,412.405,246.126z
		 M412.532,245.475c0.495,0,0.979-0.095,1.452-0.284s0.9-0.434,1.282-0.735c0.381-0.301,0.695-0.637,0.943-1.008
		c0.246-0.371,0.392-0.746,0.434-1.124v-3.76c-0.169-0.434-0.406-0.84-0.71-1.218s-0.646-0.7-1.027-0.966s-0.791-0.476-1.229-0.63
		c-0.438-0.154-0.883-0.231-1.335-0.231c-0.706,0-1.335,0.147-1.886,0.441s-1.018,0.68-1.398,1.155
		c-0.382,0.476-0.675,1.012-0.88,1.607s-0.308,1.194-0.308,1.795c0,0.659,0.12,1.285,0.36,1.88c0.24,0.595,0.572,1.121,0.996,1.575
		c0.424,0.455,0.918,0.819,1.483,1.092S411.883,245.475,412.532,245.475z"/>
	<path d="M426.525,246.147c-0.749,0-1.448-0.15-2.099-0.452c-0.649-0.301-1.218-0.714-1.705-1.239
		c-0.488-0.525-0.869-1.134-1.145-1.828c-0.275-0.693-0.413-1.431-0.413-2.216c0-0.77,0.134-1.491,0.402-2.163
		c0.268-0.672,0.643-1.26,1.123-1.764c0.48-0.504,1.038-0.903,1.674-1.197s1.328-0.441,2.077-0.441s1.448,0.147,2.098,0.441
		c0.65,0.294,1.215,0.697,1.695,1.208c0.48,0.511,0.862,1.11,1.145,1.796s0.424,1.415,0.424,2.184c0,0.028-0.003,0.084-0.011,0.168
		c-0.007,0.084-0.01,0.133-0.01,0.147h-9.876c0.042,0.672,0.197,1.299,0.466,1.879c0.269,0.582,0.611,1.082,1.028,1.502
		c0.416,0.42,0.894,0.753,1.431,0.998c0.536,0.245,1.108,0.368,1.716,0.368c0.41,0,0.81-0.053,1.198-0.158
		c0.388-0.105,0.752-0.255,1.091-0.452c0.339-0.196,0.636-0.43,0.891-0.704c0.254-0.273,0.459-0.57,0.614-0.893l0.657,0.168
		c-0.156,0.378-0.386,0.732-0.689,1.061s-0.653,0.609-1.049,0.84s-0.826,0.413-1.293,0.546
		C427.5,246.081,427.02,246.147,426.525,246.147z M431.081,240.182c-0.042-0.686-0.19-1.316-0.444-1.89
		c-0.255-0.574-0.591-1.071-1.007-1.491c-0.417-0.42-0.894-0.746-1.431-0.977s-1.116-0.347-1.737-0.347
		c-0.622,0-1.201,0.119-1.738,0.357c-0.537,0.238-1.01,0.567-1.42,0.987c-0.409,0.42-0.738,0.917-0.985,1.491
		s-0.392,1.197-0.435,1.869H431.081z"/>
	<path d="M440.313,235.688c-1.017,0.042-1.9,0.361-2.648,0.956c-0.749,0.595-1.271,1.404-1.568,2.426v6.868h-0.721v-10.921h0.699
		v2.772c0.382-0.77,0.891-1.4,1.526-1.891c0.636-0.49,1.313-0.777,2.034-0.861c0.141,0,0.269-0.003,0.381-0.011
		c0.113-0.007,0.212-0.01,0.297-0.01V235.688z"/>
</g>
<text transform="matrix(1.009 0 0 1 102.4106 -175.2031)"><tspan x="0" y="0" fill="#3312BD" font-family="'Raleway-Light'" font-size="21.003" letter-spacing="0.991">E</tspan><tspan x="14.092" y="0" font-family="'Raleway-Light'" font-size="21.003" letter-spacing="0.991">nterprise </tspan><tspan x="116.123" y="0" fill="#3312BD" font-family="'Raleway-Light'" font-size="21.003" letter-spacing="0.991">I</tspan><tspan x="122.319" y="0" fill="#040000" font-family="'Raleway-Light'" font-size="21.003" letter-spacing="0.991">ntelligence</tspan><tspan x="241.846" y="0" font-family="'Raleway-Light'" font-size="21.003" letter-spacing="0.991"> </tspan><tspan x="248.504" y="0" fill="#3312BD" font-family="'Raleway-Light'" font-size="21.003" letter-spacing="0.991">M</tspan><tspan x="268.204" y="0" font-family="'Raleway-Light'" font-size="21.003" letter-spacing="0.991">anager</tspan></text>
<text transform="matrix(1.009 0 0 1 102.4106 203.1299)"><tspan x="0" y="0" fill="#3312BD" font-family="'Raleway-Light'" font-size="21.003" letter-spacing="0.991">E</tspan><tspan x="14.092" y="0" font-family="'Raleway-Light'" font-size="21.003" letter-spacing="0.991">nterprise </tspan><tspan x="116.123" y="0" fill="#3312BD" font-family="'Raleway-Light'" font-size="21.003" letter-spacing="0.991">I</tspan><tspan x="122.319" y="0" fill="#040000" font-family="'Raleway-Light'" font-size="21.003" letter-spacing="0.991">ntelligence</tspan><tspan x="241.846" y="0" font-family="'Raleway-Light'" font-size="21.003" letter-spacing="0.991"> </tspan><tspan x="248.504" y="0" fill="#3312BD" font-family="'Raleway-Light'" font-size="21.003" letter-spacing="0.991">M</tspan><tspan x="268.204" y="0" font-family="'Raleway-Light'" font-size="21.003" letter-spacing="0.991">anager</tspan></text>
<text transform="matrix(1.009 0 0 1 102.5352 -108.0625)"><tspan x="0" y="0" fill="#3312BD" font-family="'Raleway-ExtraLight'" font-size="21.003" letter-spacing="0.991">E</tspan><tspan x="14.24" y="0" font-family="'Raleway-ExtraLight'" font-size="21.003" letter-spacing="0.991">nterprise </tspan><tspan x="116.166" y="0" fill="#3312BD" font-family="'Raleway-ExtraLight'" font-size="21.003" letter-spacing="0.991">I</tspan><tspan x="122.278" y="0" fill="#040000" font-family="'Raleway-ExtraLight'" font-size="21.003" letter-spacing="0.991">ntelligence</tspan><tspan x="241.406" y="0" font-family="'Raleway-ExtraLight'" font-size="21.003" letter-spacing="0.991"> </tspan><tspan x="248.252" y="0" fill="#3312BD" font-family="'Raleway-ExtraLight'" font-size="21.003" letter-spacing="0.991">M</tspan><tspan x="268.121" y="0" font-family="'Raleway-ExtraLight'" font-size="21.003" letter-spacing="0.991">anager</tspan></text>
<g>
	<g>
		<g>
			
				<radialGradient id="SVGID_1_" cx="-2448.438" cy="-2942.0327" r="164.7026" gradientTransform="matrix(0.1698 0 0 0.1698 448.6419 292.5684)" gradientUnits="userSpaceOnUse">
				<stop  offset="0.1131" style="stop-color:#A8CAE7"/>
				<stop  offset="0.4167" style="stop-color:#67ABD8"/>
				<stop  offset="0.75" style="stop-color:#3C529A"/>
				<stop  offset="0.9702" style="stop-color:#1A2D78"/>
			</radialGradient>
			<path fill="url(#SVGID_1_)" d="M55.971-188.459c0-7.51-6.096-13.204-13.597-13.595c-13.084-0.696-18.306-35.299,8.817-35.711
				c-2.927-0.872-6.028-1.346-9.241-1.346c-17.741,0-32.127,14.38-32.127,32.118c0,17.746,14.386,32.127,32.127,32.127
				c0.084,0,0.153-0.002,0.231-0.002c0.063,0.002,0.126,0.002,0.193,0.002c0.279,0,0.549-0.009,0.819-0.023
				c0.023-0.004,0.046,0,0.066-0.004c0.03,0.004,0.059,0,0.087-0.012C50.402-175.404,55.971-181.278,55.971-188.459z"/>
			<linearGradient id="SVGID_2_" gradientUnits="userSpaceOnUse" x1="28.2769" y1="-206.9893" x2="74.4194" y2="-206.9893">
				<stop  offset="0.131" style="stop-color:#0E8A3B"/>
				<stop  offset="0.7857" style="stop-color:#BED52B"/>
			</linearGradient>
			<path fill="url(#SVGID_2_)" d="M28.277-225.52c0,7.509,6.098,13.223,13.595,13.595c31.005,1.559,18.309,35.301-8.813,35.716
				c2.927,0.868,6.023,1.341,9.24,1.341c17.741,0,32.12-14.381,32.12-32.127c0-17.737-14.379-32.118-32.12-32.118
				c-0.078,0-0.157,0-0.232,0c-0.062,0-0.125,0-0.195,0c-0.276,0-0.549,0.011-0.818,0.024c-0.023,0-0.049,0-0.069,0
				c-0.026,0-0.059,0.005-0.085,0.015C33.846-238.578,28.277-232.703,28.277-225.52z"/>
			
				<radialGradient id="SVGID_3_" cx="-2515.3145" cy="-3195.8638" r="67.7228" gradientTransform="matrix(0.1698 0 0 0.1698 448.6419 292.5684)" gradientUnits="userSpaceOnUse">
				<stop  offset="0.1131" style="stop-color:#A8CAE7"/>
				<stop  offset="0.4167" style="stop-color:#67ABD8"/>
				<stop  offset="0.75" style="stop-color:#3C529A"/>
				<stop  offset="0.9702" style="stop-color:#1A2D78"/>
			</radialGradient>
			<path fill="url(#SVGID_3_)" d="M32.245-246.87c0,3.882-3.137,7.023-7.018,7.023c-3.875,0-7.023-3.141-7.023-7.023
				c0-3.874,3.149-7.018,7.023-7.018C29.108-253.888,32.245-250.743,32.245-246.87z"/>
			
				<radialGradient id="SVGID_4_" cx="-2390.2153" cy="-3246.5078" r="82.1165" gradientTransform="matrix(0.1698 0 0 0.1698 448.6419 292.5684)" gradientUnits="userSpaceOnUse">
				<stop  offset="0.006" style="stop-color:#E9E629"/>
				<stop  offset="0.4224" style="stop-color:#87B828"/>
				<stop  offset="0.9049" style="stop-color:#008A40"/>
			</radialGradient>
			<path fill="url(#SVGID_4_)" d="M52.724-254.701c0,3.88-3.144,7.022-7.025,7.022c-3.876,0-7.023-3.142-7.023-7.022
				c0-3.878,3.147-7.019,7.023-7.019C49.581-261.72,52.724-258.58,52.724-254.701z"/>
			
				<radialGradient id="SVGID_5_" cx="-2419.5991" cy="-3157.3159" r="163.4625" gradientTransform="matrix(0.1698 0 0 0.1698 448.6419 292.5684)" gradientUnits="userSpaceOnUse">
				<stop  offset="0.255" style="stop-color:#FFFFFF"/>
				<stop  offset="1" style="stop-color:#FFFFFF;stop-opacity:0"/>
			</radialGradient>
			<path opacity="0.78" fill="url(#SVGID_5_)" d="M61.504-225.792c-0.307,5.866-7.632,10.244-16.359,9.787
				c-8.727-0.456-15.554-5.579-15.246-11.442c0.309-5.864,7.63-10.254,16.355-9.791C54.98-236.777,61.81-231.66,61.504-225.792z"/>
			
				<radialGradient id="SVGID_6_" cx="4701.3164" cy="2343.8535" r="163.4096" gradientTransform="matrix(-0.1652 -0.0395 0.0395 -0.1652 720.7321 400.8717)" gradientUnits="userSpaceOnUse">
				<stop  offset="0.255" style="stop-color:#FFFFFF"/>
				<stop  offset="1" style="stop-color:#FFFFFF;stop-opacity:0"/>
			</radialGradient>
			<path opacity="0.48" fill="url(#SVGID_6_)" d="M17.723-194.812c1.664-5.633,9.803-8.194,18.186-5.716
				c8.382,2.468,13.831,9.038,12.172,14.671c-1.666,5.632-9.811,8.194-18.193,5.721C21.51-182.616,16.064-189.176,17.723-194.812z"
				/>
		</g>
	</g>
	<g>
		<g>
			<g>
				<path fill="#3312BD" d="M152.235-219.938c0,9.242-1.759,16.723-3.927,16.723c-2.167,0-3.93-7.48-3.93-16.723
					c0-9.235,1.763-16.724,3.93-16.724C150.477-236.662,152.235-229.173,152.235-219.938z"/>
				<g>
					<path fill="#3312BD" d="M153.113-244.652c0,2.667-2.149,4.8-4.805,4.8c-2.655,0-4.805-2.134-4.805-4.8
						c0-2.674,2.15-4.805,4.805-4.805C150.964-249.457,153.113-247.327,153.113-244.652z"/>
				</g>
			</g>
			<path fill="#403F41" d="M199.206-235.93h-6.72c-0.088,0-0.168,0.038-0.219,0.102l-13.229,16.858l-13.229-16.858
				c-0.051-0.064-0.131-0.102-0.217-0.102h-6.722c-0.148,0-0.268,0.107-0.268,0.242v32.23c0,0.135,0.12,0.242,0.268,0.242h4.479
				c0.148,0,0.269-0.107,0.269-0.242v-26.939l14.005,18.096c0.051,0.064,0.133,0.101,0.219,0.101h2.388
				c0.088,0,0.169-0.037,0.219-0.101l14.007-18.096v26.939c0,0.135,0.121,0.242,0.269,0.242h4.48c0.148,0,0.268-0.107,0.268-0.242
				v-32.23C199.474-235.822,199.354-235.93,199.206-235.93z"/>
			<path fill="#403F41" d="M279.826-235.908h-4.482c-0.148,0-0.269,0.108-0.269,0.242v26.403L252.7-235.813
				c-0.049-0.059-0.126-0.094-0.211-0.094h-6.275c-0.147,0-0.266,0.108-0.266,0.242v32.208c0,0.135,0.119,0.242,0.266,0.242h4.482
				c0.149,0,0.268-0.107,0.268-0.242v-26.831l22.374,26.976c0.05,0.062,0.129,0.097,0.215,0.097h6.274
				c0.147,0,0.267-0.107,0.267-0.242v-32.208C280.092-235.799,279.973-235.908,279.826-235.908z"/>
			<path fill="#403F41" d="M344.566-235.911c-14.303,0-21.555,5.768-21.555,17.147c0,12.299,14.099,15.548,21.555,15.548
				c6.013,0,11.347-1.709,15.856-5.079c0.061-0.047,0.097-0.116,0.097-0.186v-11.837c0-0.136-0.12-0.242-0.267-0.242h-15.686
				c-0.148,0-0.269,0.106-0.269,0.242v3.614c0,0.135,0.121,0.244,0.269,0.244h10.936v5.868c-2.907,2.575-6.587,3.881-10.936,3.881
				c-4.809,0-15.076-2.954-16.093-12.078c-0.333-2.963,0.691-5.664,3.039-8.022c3.838-3.864,9.945-5.6,13.055-5.6
				c5.137,0,10.356,2.008,15.513,5.968c0.079,0.063,0.192,0.077,0.285,0.035c0.093-0.038,0.155-0.125,0.155-0.219v-4.016
				c0-0.065-0.03-0.129-0.08-0.173C356.666-234.198,351.325-235.911,344.566-235.911z"/>
			<g>
				<path fill="#403F41" d="M399.626-207.366h-27.869v-9.043h22.752c0.149,0,0.267-0.109,0.267-0.243v-3.665
					c0-0.136-0.118-0.242-0.267-0.242h-28.133c-0.148,0-0.267,0.106-0.267,0.242v16.86c0,0.135,0.119,0.242,0.267,0.242h33.25
					c0.148,0,0.268-0.107,0.268-0.242v-3.667C399.894-207.26,399.774-207.366,399.626-207.366z"/>
				<path fill="#403F41" d="M399.626-235.93h-33.25c-0.148,0-0.267,0.107-0.267,0.242v3.667c0,0.134,0.119,0.242,0.267,0.242h33.25
					c0.148,0,0.268-0.108,0.268-0.242v-3.667C399.894-235.822,399.774-235.93,399.626-235.93z"/>
			</g>
			<g>
				<path fill="#403F41" d="M137.745-207.366h-27.869v-9.043h22.753c0.147,0,0.267-0.109,0.267-0.243v-3.665
					c0-0.136-0.12-0.242-0.267-0.242h-28.135c-0.147,0-0.268,0.106-0.268,0.242v16.86c0,0.135,0.121,0.242,0.268,0.242h33.251
					c0.147,0,0.267-0.107,0.267-0.242v-3.667C138.011-207.26,137.892-207.366,137.745-207.366z"/>
				<path fill="#403F41" d="M137.745-235.93h-33.251c-0.147,0-0.268,0.107-0.268,0.242v3.667c0,0.134,0.121,0.242,0.268,0.242
					h33.251c0.147,0,0.267-0.108,0.267-0.242v-3.667C138.011-235.822,137.892-235.93,137.745-235.93z"/>
			</g>
			<path fill="#403F41" d="M226.07-235.93h-6.722c-0.104,0-0.2,0.058-0.244,0.145c-0.042,0.09-0.022,0.19,0.048,0.264l3.313,3.228
				l7.718,15.737h-15.226l-3.401-4.095c-0.059-0.069-0.157-0.099-0.247-0.093c-0.096,0.01-0.177,0.065-0.214,0.147l-7.79,17.048
				c-0.036,0.073-0.026,0.159,0.023,0.226c0.051,0.068,0.135,0.107,0.223,0.107h4.704c0.1,0,0.193-0.051,0.238-0.132l4.999-9.058
				h18.433l5,9.058c0.044,0.082,0.135,0.132,0.237,0.132h4.708c0.09,0,0.175-0.039,0.224-0.109c0.048-0.068,0.054-0.154,0.019-0.231
				l-15.799-32.229C226.272-235.873,226.177-235.93,226.07-235.93z"/>
			<path fill="#403F41" d="M306.693-235.93h-6.722c-0.106,0-0.201,0.058-0.245,0.145c-0.042,0.09-0.022,0.19,0.047,0.264
				l3.313,3.228l7.718,15.737H295.58l-3.402-4.095c-0.06-0.069-0.15-0.099-0.247-0.093c-0.095,0.01-0.177,0.065-0.214,0.147
				l-7.791,17.048c-0.034,0.073-0.025,0.159,0.024,0.226c0.048,0.068,0.133,0.107,0.222,0.107h4.705
				c0.101,0,0.192-0.051,0.237-0.132l5-9.058h18.433l4.998,9.058c0.048,0.082,0.139,0.132,0.241,0.132h4.704
				c0.092,0,0.177-0.039,0.225-0.109c0.05-0.068,0.057-0.154,0.019-0.231l-15.798-32.229
				C306.894-235.873,306.797-235.93,306.693-235.93z"/>
			<path fill="#403F41" d="M441.866-203.574l-17.095-14.134c3.211-0.487,5.916-1.488,8.05-2.976c2.29-1.59,3.449-3.719,3.449-6.329
				c0-5.898-6.876-8.891-20.438-8.891h-10.082c-0.148,0-0.268,0.087-0.268,0.198v3.111c0,0.052,0.03,0.104,0.082,0.142
				c0.054,0.037,0.119,0.055,0.194,0.055l4.472-0.102h6.797c9.142,0,13.777,2.016,13.777,5.987c0,3.971-4.636,5.985-13.777,5.985
				l-11.277-0.009c-0.073,0-0.139,0.021-0.186,0.058c-0.052,0.038-0.082,0.088-0.082,0.14v16.925c0,0.109,0.119,0.197,0.268,0.197
				h4.48c0.148,0,0.269-0.088,0.269-0.197v-13.708l8.422-0.034l17.182,13.939h5.601c0.115,0,0.219-0.055,0.255-0.135
				C441.995-203.433,441.957-203.521,441.866-203.574z"/>
		</g>
	</g>
</g>
<rect x="630" y="-92" fill="#FFFFFF" width="563" height="520"/>
<g>
	<text transform="matrix(1.009 0 0 1 784.4102 84.7969)"><tspan x="0" y="0" fill="#3312BD" font-family="'Raleway-Light'" font-size="21.003" letter-spacing="0.991">E</tspan><tspan x="14.093" y="0" font-family="'Raleway-Light'" font-size="21.003" letter-spacing="0.991">nterprise </tspan><tspan x="116.123" y="0" fill="#3312BD" font-family="'Raleway-Light'" font-size="21.003" letter-spacing="0.991">I</tspan><tspan x="122.319" y="0" fill="#040000" font-family="'Raleway-Light'" font-size="21.003" letter-spacing="0.991">ntelligence</tspan><tspan x="241.847" y="0" font-family="'Raleway-Light'" font-size="21.003" letter-spacing="0.991"> </tspan><tspan x="248.504" y="0" fill="#3312BD" font-family="'Raleway-Light'" font-size="21.003" letter-spacing="0.991">M</tspan><tspan x="268.205" y="0" font-family="'Raleway-Light'" font-size="21.003" letter-spacing="0.991">anager</tspan></text>
	<g>
		<g>
			
				<radialGradient id="SVGID_7_" cx="1568.0508" cy="-1381.373" r="164.702" gradientTransform="matrix(0.1698 0 0 0.1698 448.6419 292.5684)" gradientUnits="userSpaceOnUse">
				<stop  offset="0.1131" style="stop-color:#A8CAE7"/>
				<stop  offset="0.4167" style="stop-color:#67ABD8"/>
				<stop  offset="0.75" style="stop-color:#3C529A"/>
				<stop  offset="0.9702" style="stop-color:#1A2D78"/>
			</radialGradient>
			<path fill="url(#SVGID_7_)" d="M737.971,76.541c0-7.51-6.096-13.204-13.596-13.595c-13.085-0.696-18.307-35.299,8.816-35.711
				c-2.927-0.872-6.028-1.346-9.241-1.346c-17.741,0-32.127,14.38-32.127,32.118c0,17.746,14.386,32.127,32.127,32.127
				c0.085,0,0.153-0.002,0.231-0.002c0.063,0.002,0.125,0.002,0.193,0.002c0.278,0,0.549-0.009,0.818-0.023
				c0.023-0.004,0.047,0,0.066-0.004c0.03,0.004,0.059,0,0.088-0.012C732.402,89.596,737.971,83.722,737.971,76.541z"/>
			<linearGradient id="SVGID_8_" gradientUnits="userSpaceOnUse" x1="710.2773" y1="58.0107" x2="756.4199" y2="58.0107">
				<stop  offset="0.131" style="stop-color:#0E8A3B"/>
				<stop  offset="0.7857" style="stop-color:#BED52B"/>
			</linearGradient>
			<path fill="url(#SVGID_8_)" d="M710.277,39.48c0,7.509,6.098,13.223,13.595,13.595c31.005,1.559,18.31,35.301-8.813,35.716
				c2.928,0.868,6.023,1.341,9.24,1.341c17.741,0,32.121-14.381,32.121-32.127c0-17.737-14.38-32.118-32.121-32.118
				c-0.078,0-0.156,0-0.232,0c-0.062,0-0.124,0-0.194,0c-0.276,0-0.55,0.011-0.817,0.024c-0.023,0-0.05,0-0.07,0
				c-0.025,0-0.059,0.005-0.084,0.015C715.846,26.422,710.277,32.297,710.277,39.48z"/>
			
				<radialGradient id="SVGID_9_" cx="1501.1738" cy="-1635.2041" r="67.7239" gradientTransform="matrix(0.1698 0 0 0.1698 448.6419 292.5684)" gradientUnits="userSpaceOnUse">
				<stop  offset="0.1131" style="stop-color:#A8CAE7"/>
				<stop  offset="0.4167" style="stop-color:#67ABD8"/>
				<stop  offset="0.75" style="stop-color:#3C529A"/>
				<stop  offset="0.9702" style="stop-color:#1A2D78"/>
			</radialGradient>
			<path fill="url(#SVGID_9_)" d="M714.245,18.13c0,3.882-3.138,7.023-7.019,7.023c-3.874,0-7.023-3.141-7.023-7.023
				c0-3.874,3.149-7.018,7.023-7.018C711.107,11.112,714.245,14.257,714.245,18.13z"/>
			
				<radialGradient id="SVGID_10_" cx="1626.2734" cy="-1685.8486" r="82.1193" gradientTransform="matrix(0.1698 0 0 0.1698 448.6419 292.5684)" gradientUnits="userSpaceOnUse">
				<stop  offset="0.006" style="stop-color:#E9E629"/>
				<stop  offset="0.4224" style="stop-color:#87B828"/>
				<stop  offset="0.9049" style="stop-color:#008A40"/>
			</radialGradient>
			<path fill="url(#SVGID_10_)" d="M734.725,10.299c0,3.88-3.145,7.022-7.025,7.022c-3.876,0-7.023-3.142-7.023-7.022
				c0-3.878,3.147-7.019,7.023-7.019C731.58,3.28,734.725,6.42,734.725,10.299z"/>
			
				<radialGradient id="SVGID_11_" cx="1596.8906" cy="-1596.6563" r="163.4616" gradientTransform="matrix(0.1698 0 0 0.1698 448.6419 292.5684)" gradientUnits="userSpaceOnUse">
				<stop  offset="0.255" style="stop-color:#FFFFFF"/>
				<stop  offset="1" style="stop-color:#FFFFFF;stop-opacity:0"/>
			</radialGradient>
			<path opacity="0.78" fill="url(#SVGID_11_)" d="M743.504,39.208c-0.307,5.866-7.632,10.244-16.358,9.787
				c-8.728-0.456-15.554-5.579-15.246-11.442c0.309-5.864,7.63-10.254,16.355-9.791C736.98,28.223,743.81,33.34,743.504,39.208z"/>
			
				<radialGradient id="SVGID_12_" cx="433.4355" cy="1760.2051" r="163.4097" gradientTransform="matrix(-0.1652 -0.0395 0.0395 -0.1652 720.7321 400.8717)" gradientUnits="userSpaceOnUse">
				<stop  offset="0.255" style="stop-color:#FFFFFF"/>
				<stop  offset="1" style="stop-color:#FFFFFF;stop-opacity:0"/>
			</radialGradient>
			<path opacity="0.48" fill="url(#SVGID_12_)" d="M699.723,70.188c1.664-5.633,9.803-8.194,18.186-5.716
				c8.382,2.468,13.83,9.038,12.172,14.671c-1.666,5.632-9.811,8.194-18.193,5.721C703.51,82.384,698.064,75.824,699.723,70.188z"/>
		</g>
	</g>
	<g>
		<g>
			<g>
				<path fill="#3312BD" d="M834.235,42.062c0,9.242-1.759,16.723-3.927,16.723s-3.93-7.48-3.93-16.723
					c0-9.235,1.762-16.724,3.93-16.724S834.235,32.827,834.235,42.062z"/>
				<g>
					<path fill="#3312BD" d="M835.113,17.348c0,2.667-2.149,4.8-4.805,4.8s-4.806-2.134-4.806-4.8c0-2.674,2.15-4.805,4.806-4.805
						S835.113,14.673,835.113,17.348z"/>
				</g>
			</g>
			<path fill="#403F41" d="M881.206,26.07h-6.72c-0.089,0-0.169,0.038-0.219,0.102l-13.229,16.858l-13.229-16.858
				c-0.052-0.064-0.132-0.102-0.217-0.102h-6.723c-0.147,0-0.268,0.107-0.268,0.242v32.23c0,0.135,0.12,0.242,0.268,0.242h4.479
				c0.148,0,0.27-0.107,0.27-0.242V31.604l14.005,18.096c0.052,0.064,0.133,0.101,0.22,0.101h2.388c0.088,0,0.169-0.037,0.219-0.101
				l14.007-18.096v26.939c0,0.135,0.121,0.242,0.27,0.242h4.479c0.147,0,0.269-0.107,0.269-0.242v-32.23
				C881.475,26.178,881.354,26.07,881.206,26.07z"/>
			<path fill="#403F41" d="M961.826,26.092h-4.482c-0.148,0-0.269,0.108-0.269,0.242v26.403l-22.376-26.551
				c-0.049-0.059-0.125-0.094-0.211-0.094h-6.275c-0.146,0-0.266,0.108-0.266,0.242v32.208c0,0.135,0.119,0.242,0.266,0.242h4.482
				c0.149,0,0.268-0.107,0.268-0.242V31.711l22.374,26.976c0.05,0.062,0.13,0.097,0.215,0.097h6.274
				c0.146,0,0.266-0.107,0.266-0.242V26.334C962.092,26.201,961.973,26.092,961.826,26.092z"/>
			<path fill="#403F41" d="M1026.566,26.089c-14.303,0-21.556,5.768-21.556,17.147c0,12.299,14.099,15.548,21.556,15.548
				c6.013,0,11.347-1.709,15.855-5.079c0.061-0.047,0.097-0.116,0.097-0.186V41.683c0-0.136-0.12-0.242-0.267-0.242h-15.686
				c-0.148,0-0.27,0.106-0.27,0.242v3.614c0,0.135,0.121,0.244,0.27,0.244h10.936v5.868c-2.907,2.575-6.588,3.881-10.936,3.881
				c-4.81,0-15.076-2.954-16.094-12.078c-0.332-2.963,0.691-5.664,3.039-8.022c3.838-3.864,9.944-5.6,13.055-5.6
				c5.137,0,10.355,2.008,15.512,5.968c0.079,0.063,0.193,0.077,0.285,0.035c0.094-0.038,0.155-0.125,0.155-0.219v-4.016
				c0-0.065-0.03-0.129-0.08-0.173C1038.666,27.802,1033.325,26.089,1026.566,26.089z"/>
			<g>
				<path fill="#403F41" d="M1081.626,54.634h-27.869v-9.043h22.753c0.148,0,0.266-0.109,0.266-0.243v-3.665
					c0-0.136-0.117-0.242-0.266-0.242h-28.134c-0.147,0-0.267,0.106-0.267,0.242v16.86c0,0.135,0.119,0.242,0.267,0.242h33.25
					c0.147,0,0.269-0.107,0.269-0.242v-3.667C1081.895,54.74,1081.773,54.634,1081.626,54.634z"/>
				<path fill="#403F41" d="M1081.626,26.07h-33.25c-0.147,0-0.267,0.107-0.267,0.242v3.667c0,0.134,0.119,0.242,0.267,0.242h33.25
					c0.147,0,0.269-0.108,0.269-0.242v-3.667C1081.895,26.178,1081.773,26.07,1081.626,26.07z"/>
			</g>
			<g>
				<path fill="#403F41" d="M819.744,54.634h-27.869v-9.043h22.754c0.146,0,0.267-0.109,0.267-0.243v-3.665
					c0-0.136-0.12-0.242-0.267-0.242h-28.135c-0.147,0-0.268,0.106-0.268,0.242v16.86c0,0.135,0.12,0.242,0.268,0.242h33.25
					c0.147,0,0.268-0.107,0.268-0.242v-3.667C820.012,54.74,819.892,54.634,819.744,54.634z"/>
				<path fill="#403F41" d="M819.744,26.07h-33.25c-0.147,0-0.268,0.107-0.268,0.242v3.667c0,0.134,0.12,0.242,0.268,0.242h33.25
					c0.147,0,0.268-0.108,0.268-0.242v-3.667C820.012,26.178,819.892,26.07,819.744,26.07z"/>
			</g>
			<path fill="#403F41" d="M908.07,26.07h-6.722c-0.104,0-0.2,0.058-0.244,0.145c-0.042,0.09-0.022,0.19,0.048,0.264l3.313,3.228
				l7.719,15.737h-15.227l-3.4-4.095c-0.06-0.069-0.157-0.099-0.248-0.093c-0.096,0.01-0.177,0.065-0.213,0.147l-7.791,17.048
				c-0.035,0.073-0.025,0.159,0.023,0.226c0.051,0.068,0.135,0.107,0.223,0.107h4.705c0.1,0,0.192-0.051,0.238-0.132l4.998-9.058
				h18.434l5,9.058c0.044,0.082,0.135,0.132,0.236,0.132h4.708c0.09,0,0.175-0.039,0.224-0.109c0.048-0.068,0.054-0.154,0.02-0.231
				l-15.8-32.229C908.272,26.127,908.178,26.07,908.07,26.07z"/>
			<path fill="#403F41" d="M988.693,26.07h-6.723c-0.105,0-0.201,0.058-0.244,0.145c-0.041,0.09-0.022,0.19,0.047,0.264l3.313,3.228
				l7.719,15.737H977.58l-3.402-4.095c-0.06-0.069-0.15-0.099-0.246-0.093c-0.096,0.01-0.178,0.065-0.215,0.147l-7.791,17.048
				c-0.033,0.073-0.024,0.159,0.025,0.226c0.047,0.068,0.133,0.107,0.221,0.107h4.705c0.102,0,0.192-0.051,0.237-0.132l4.999-9.058
				h18.434l4.998,9.058c0.048,0.082,0.139,0.132,0.24,0.132h4.705c0.092,0,0.176-0.039,0.225-0.109
				c0.05-0.068,0.057-0.154,0.018-0.231l-15.797-32.229C988.894,26.127,988.797,26.07,988.693,26.07z"/>
			<path fill="#403F41" d="M1123.866,58.426l-17.095-14.134c3.211-0.487,5.916-1.488,8.05-2.976c2.29-1.59,3.449-3.719,3.449-6.329
				c0-5.898-6.876-8.891-20.438-8.891h-10.082c-0.148,0-0.268,0.087-0.268,0.198v3.111c0,0.052,0.03,0.104,0.082,0.142
				c0.054,0.037,0.119,0.055,0.194,0.055l4.472-0.102h6.797c9.142,0,13.777,2.016,13.777,5.987c0,3.971-4.636,5.985-13.777,5.985
				l-11.277-0.009c-0.073,0-0.139,0.021-0.186,0.058c-0.052,0.038-0.082,0.088-0.082,0.14v16.925c0,0.109,0.119,0.197,0.268,0.197
				h4.48c0.148,0,0.269-0.088,0.269-0.197V44.879l8.422-0.034l17.182,13.939h5.601c0.115,0,0.219-0.055,0.255-0.135
				C1123.995,58.567,1123.957,58.479,1123.866,58.426z"/>
		</g>
	</g>
</g>
<g>
	<g>
		<path fill="#3312BD" d="M114.427,83.83v0.966h-10.024V69.884h9.833v0.966h-8.752v5.86h7.65v0.924h-7.65v6.196H114.427z"/>
		<path d="M126.832,84.796h-1.06v-6.091c0-1.414-0.201-2.443-0.604-3.087c-0.402-0.644-1.049-0.966-1.939-0.966
			c-0.466,0-0.929,0.084-1.388,0.252s-0.883,0.406-1.271,0.714s-0.731,0.669-1.028,1.082c-0.296,0.413-0.516,0.858-0.657,1.333
			v6.763h-1.06V73.875h0.975v2.604c0.226-0.42,0.509-0.801,0.848-1.145c0.339-0.343,0.713-0.637,1.124-0.882
			c0.41-0.245,0.851-0.434,1.324-0.567c0.473-0.133,0.957-0.199,1.452-0.199c1.201,0,2.048,0.417,2.543,1.25
			s0.742,2.027,0.742,3.581V84.796z"/>
		<path d="M135.746,84.271c-0.057,0.028-0.152,0.081-0.286,0.157c-0.134,0.077-0.304,0.151-0.509,0.221
			c-0.205,0.07-0.434,0.133-0.688,0.189s-0.53,0.084-0.827,0.084s-0.576-0.042-0.837-0.126c-0.262-0.084-0.491-0.21-0.689-0.378
			s-0.357-0.371-0.477-0.609c-0.121-0.238-0.18-0.518-0.18-0.84v-8.233h-1.547v-0.861h1.547v-3.739h1.06v3.739h2.585v0.861h-2.585
			v7.981c0,0.406,0.141,0.71,0.424,0.914c0.282,0.203,0.607,0.304,0.975,0.304c0.438,0,0.816-0.073,1.134-0.22
			s0.512-0.242,0.583-0.284L135.746,84.271z"/>
		<path d="M142.878,85.006c-0.777,0-1.498-0.15-2.162-0.452c-0.664-0.301-1.24-0.714-1.727-1.239
			c-0.487-0.525-0.869-1.131-1.145-1.817s-0.413-1.421-0.413-2.206c0-0.77,0.138-1.494,0.413-2.174
			c0.275-0.679,0.653-1.274,1.134-1.785c0.48-0.511,1.052-0.914,1.717-1.208c0.664-0.294,1.377-0.441,2.14-0.441
			c0.777,0,1.494,0.15,2.151,0.451c0.657,0.301,1.226,0.708,1.706,1.218c0.48,0.511,0.858,1.106,1.134,1.785
			c0.275,0.68,0.413,1.397,0.413,2.153c0,0.07-0.003,0.158-0.01,0.263c-0.007,0.105-0.011,0.171-0.011,0.2h-9.685
			c0.042,0.63,0.19,1.215,0.445,1.753c0.254,0.54,0.576,1.005,0.964,1.397c0.388,0.392,0.837,0.7,1.346,0.924
			c0.509,0.224,1.052,0.336,1.632,0.336c0.381,0,0.759-0.053,1.134-0.158c0.374-0.105,0.72-0.249,1.038-0.431
			c0.318-0.182,0.601-0.402,0.848-0.662c0.247-0.259,0.441-0.542,0.583-0.851l0.933,0.252c-0.17,0.392-0.406,0.753-0.71,1.082
			c-0.304,0.329-0.657,0.612-1.06,0.851c-0.403,0.238-0.845,0.423-1.325,0.557C143.881,84.94,143.387,85.006,142.878,85.006z
			 M147.202,78.916c-0.042-0.644-0.188-1.232-0.435-1.764s-0.565-0.991-0.954-1.376c-0.389-0.385-0.837-0.686-1.346-0.903
			c-0.509-0.217-1.053-0.326-1.632-0.326c-0.58,0-1.123,0.109-1.632,0.326c-0.508,0.217-0.957,0.518-1.346,0.903
			c-0.389,0.385-0.699,0.848-0.932,1.386c-0.233,0.54-0.371,1.124-0.414,1.754H147.202z"/>
		<path d="M156.806,74.82c-1.003,0.028-1.873,0.319-2.607,0.872c-0.735,0.554-1.25,1.313-1.547,2.279v6.826h-1.06V73.875h0.996
			v2.688c0.381-0.77,0.886-1.396,1.515-1.879c0.628-0.483,1.303-0.76,2.024-0.83c0.141,0,0.268-0.003,0.381-0.011
			c0.113-0.007,0.212-0.01,0.297-0.01V74.82z"/>
		<path d="M165.174,85.006c-0.946,0-1.787-0.249-2.521-0.746c-0.735-0.497-1.328-1.103-1.78-1.817v6.826h-1.06V73.875h0.954v2.184
			c0.452-0.7,1.052-1.271,1.801-1.712c0.749-0.441,1.547-0.661,2.395-0.661c0.763,0,1.466,0.161,2.109,0.483
			c0.643,0.322,1.197,0.746,1.664,1.271c0.466,0.525,0.83,1.131,1.091,1.817c0.261,0.686,0.392,1.386,0.392,2.1
			c0,0.756-0.12,1.478-0.36,2.164s-0.583,1.288-1.028,1.806c-0.445,0.518-0.979,0.928-1.6,1.229
			C166.608,84.856,165.923,85.006,165.174,85.006z M164.941,84.062c0.636,0,1.211-0.133,1.727-0.399
			c0.516-0.266,0.957-0.62,1.325-1.061c0.367-0.441,0.649-0.945,0.848-1.512c0.198-0.567,0.296-1.145,0.296-1.733
			c0-0.63-0.113-1.229-0.339-1.795c-0.226-0.567-0.537-1.068-0.933-1.502c-0.396-0.434-0.862-0.78-1.398-1.04
			c-0.537-0.259-1.109-0.389-1.717-0.389c-0.381,0-0.791,0.081-1.229,0.242s-0.848,0.378-1.229,0.651s-0.703,0.585-0.964,0.935
			c-0.262,0.351-0.413,0.722-0.456,1.113v3.592c0.169,0.406,0.396,0.784,0.678,1.134c0.282,0.35,0.6,0.659,0.954,0.924
			c0.353,0.266,0.738,0.473,1.155,0.62C164.075,83.988,164.503,84.062,164.941,84.062z"/>
		<path d="M179.008,74.82c-1.003,0.028-1.873,0.319-2.607,0.872c-0.735,0.554-1.25,1.313-1.547,2.279v6.826h-1.06V73.875h0.996
			v2.688c0.381-0.77,0.886-1.396,1.515-1.879c0.628-0.483,1.303-0.76,2.024-0.83c0.141,0,0.268-0.003,0.381-0.011
			c0.113-0.007,0.212-0.01,0.297-0.01V74.82z"/>
		<path d="M182.015,71.396v-1.932h1.06v1.932H182.015z M182.015,84.796V73.875h1.06v10.921H182.015z"/>
		<path d="M190.799,85.006c-0.848,0-1.661-0.14-2.438-0.42s-1.455-0.7-2.034-1.26l0.53-0.714c0.593,0.532,1.208,0.924,1.844,1.176
			s1.335,0.378,2.098,0.378c0.96,0,1.734-0.2,2.32-0.599c0.586-0.399,0.879-0.956,0.879-1.67c0-0.336-0.074-0.62-0.223-0.851
			c-0.148-0.231-0.371-0.427-0.667-0.588c-0.296-0.161-0.664-0.305-1.102-0.431s-0.946-0.259-1.526-0.399
			c-0.622-0.14-1.162-0.28-1.621-0.42c-0.459-0.14-0.837-0.308-1.134-0.504c-0.296-0.196-0.519-0.434-0.667-0.714
			c-0.148-0.28-0.223-0.637-0.223-1.071c0-0.546,0.106-1.022,0.318-1.428c0.212-0.406,0.505-0.742,0.88-1.008
			c0.374-0.266,0.805-0.465,1.292-0.599c0.487-0.133,1.007-0.199,1.558-0.199c0.862,0,1.625,0.144,2.289,0.43
			c0.664,0.287,1.18,0.655,1.547,1.103l-0.593,0.567c-0.368-0.42-0.845-0.735-1.431-0.945c-0.586-0.21-1.211-0.315-1.875-0.315
			c-0.41,0-0.795,0.042-1.155,0.126c-0.36,0.084-0.675,0.217-0.943,0.399c-0.269,0.182-0.48,0.417-0.636,0.704
			c-0.156,0.287-0.233,0.627-0.233,1.019c0,0.322,0.053,0.581,0.159,0.777c0.106,0.196,0.275,0.364,0.509,0.504
			c0.233,0.14,0.533,0.263,0.9,0.368s0.806,0.221,1.314,0.347c0.692,0.168,1.307,0.329,1.844,0.483
			c0.537,0.154,0.985,0.343,1.346,0.567s0.636,0.49,0.827,0.798c0.19,0.308,0.286,0.7,0.286,1.176c0,0.98-0.385,1.761-1.155,2.342
			S192.084,85.006,190.799,85.006z"/>
		<path d="M203.226,85.006c-0.777,0-1.498-0.15-2.162-0.452c-0.664-0.301-1.24-0.714-1.727-1.239
			c-0.487-0.525-0.869-1.131-1.145-1.817s-0.413-1.421-0.413-2.206c0-0.77,0.138-1.494,0.413-2.174
			c0.275-0.679,0.653-1.274,1.134-1.785c0.48-0.511,1.052-0.914,1.717-1.208c0.664-0.294,1.377-0.441,2.14-0.441
			c0.777,0,1.494,0.15,2.151,0.451c0.657,0.301,1.226,0.708,1.706,1.218c0.48,0.511,0.858,1.106,1.134,1.785
			c0.275,0.68,0.414,1.397,0.414,2.153c0,0.07-0.004,0.158-0.011,0.263c-0.007,0.105-0.011,0.171-0.011,0.2h-9.685
			c0.042,0.63,0.19,1.215,0.445,1.753c0.254,0.54,0.576,1.005,0.964,1.397c0.388,0.392,0.837,0.7,1.346,0.924
			c0.509,0.224,1.052,0.336,1.632,0.336c0.381,0,0.759-0.053,1.134-0.158c0.374-0.105,0.72-0.249,1.038-0.431
			c0.318-0.182,0.601-0.402,0.848-0.662c0.247-0.259,0.441-0.542,0.583-0.851l0.933,0.252c-0.17,0.392-0.406,0.753-0.71,1.082
			c-0.304,0.329-0.657,0.612-1.06,0.851c-0.403,0.238-0.845,0.423-1.325,0.557C204.229,84.94,203.734,85.006,203.226,85.006z
			 M207.549,78.916c-0.042-0.644-0.188-1.232-0.435-1.764s-0.565-0.991-0.954-1.376c-0.389-0.385-0.837-0.686-1.346-0.903
			c-0.509-0.217-1.053-0.326-1.632-0.326c-0.58,0-1.123,0.109-1.632,0.326c-0.508,0.217-0.957,0.518-1.346,0.903
			c-0.389,0.385-0.699,0.848-0.932,1.386c-0.233,0.54-0.371,1.124-0.414,1.754H207.549z"/>
		<path fill="#3312BD" d="M219.161,84.796V69.905h1.081v14.891H219.161z"/>
		<path fill="#040000" d="M233.881,84.796h-1.06v-6.091c0-1.414-0.201-2.443-0.604-3.087c-0.402-0.644-1.049-0.966-1.939-0.966
			c-0.466,0-0.929,0.084-1.388,0.252s-0.883,0.406-1.271,0.714s-0.731,0.669-1.028,1.082c-0.296,0.413-0.516,0.858-0.657,1.333
			v6.763h-1.06V73.875h0.975v2.604c0.226-0.42,0.509-0.801,0.848-1.145c0.339-0.343,0.713-0.637,1.124-0.882
			c0.41-0.245,0.851-0.434,1.324-0.567c0.473-0.133,0.957-0.199,1.452-0.199c1.201,0,2.048,0.417,2.543,1.25
			s0.742,2.027,0.742,3.581V84.796z"/>
		<path fill="#040000" d="M242.795,84.271c-0.057,0.028-0.152,0.081-0.286,0.157c-0.134,0.077-0.304,0.151-0.509,0.221
			c-0.205,0.07-0.434,0.133-0.688,0.189s-0.53,0.084-0.827,0.084s-0.576-0.042-0.837-0.126c-0.262-0.084-0.491-0.21-0.689-0.378
			s-0.357-0.371-0.477-0.609c-0.121-0.238-0.18-0.518-0.18-0.84v-8.233h-1.547v-0.861h1.547v-3.739h1.06v3.739h2.585v0.861h-2.585
			v7.981c0,0.406,0.141,0.71,0.424,0.914c0.282,0.203,0.607,0.304,0.975,0.304c0.438,0,0.816-0.073,1.134-0.22
			s0.512-0.242,0.583-0.284L242.795,84.271z"/>
		<path fill="#040000" d="M249.928,85.006c-0.777,0-1.498-0.15-2.162-0.452c-0.664-0.301-1.24-0.714-1.727-1.239
			c-0.487-0.525-0.869-1.131-1.145-1.817s-0.413-1.421-0.413-2.206c0-0.77,0.138-1.494,0.413-2.174
			c0.275-0.679,0.653-1.274,1.134-1.785c0.48-0.511,1.052-0.914,1.717-1.208c0.664-0.294,1.377-0.441,2.14-0.441
			c0.777,0,1.494,0.15,2.151,0.451c0.657,0.301,1.226,0.708,1.706,1.218c0.48,0.511,0.858,1.106,1.134,1.785
			c0.275,0.68,0.414,1.397,0.414,2.153c0,0.07-0.004,0.158-0.011,0.263c-0.007,0.105-0.011,0.171-0.011,0.2h-9.685
			c0.042,0.63,0.19,1.215,0.445,1.753c0.254,0.54,0.576,1.005,0.964,1.397c0.388,0.392,0.837,0.7,1.346,0.924
			c0.509,0.224,1.052,0.336,1.632,0.336c0.381,0,0.759-0.053,1.134-0.158c0.374-0.105,0.72-0.249,1.038-0.431
			c0.318-0.182,0.601-0.402,0.848-0.662c0.247-0.259,0.441-0.542,0.583-0.851l0.933,0.252c-0.17,0.392-0.406,0.753-0.71,1.082
			c-0.304,0.329-0.657,0.612-1.06,0.851c-0.403,0.238-0.845,0.423-1.325,0.557C250.931,84.94,250.437,85.006,249.928,85.006z
			 M254.251,78.916c-0.042-0.644-0.188-1.232-0.435-1.764s-0.565-0.991-0.954-1.376c-0.389-0.385-0.837-0.686-1.346-0.903
			c-0.509-0.217-1.053-0.326-1.632-0.326c-0.58,0-1.123,0.109-1.632,0.326c-0.508,0.217-0.957,0.518-1.346,0.903
			c-0.389,0.385-0.699,0.848-0.932,1.386c-0.233,0.54-0.371,1.124-0.414,1.754H254.251z"/>
		<path fill="#040000" d="M258.673,69.464h1.081v13.169c0,0.406,0.116,0.728,0.35,0.966c0.233,0.238,0.554,0.357,0.964,0.357
			c0.155,0,0.343-0.017,0.562-0.052c0.219-0.035,0.42-0.087,0.604-0.158l0.212,0.84c-0.241,0.098-0.537,0.178-0.89,0.242
			c-0.354,0.063-0.657,0.094-0.912,0.094c-0.593,0-1.07-0.179-1.43-0.536s-0.541-0.836-0.541-1.438V69.464z"/>
		<path fill="#040000" d="M265.095,69.464h1.081v13.169c0,0.406,0.116,0.728,0.35,0.966c0.233,0.238,0.554,0.357,0.964,0.357
			c0.155,0,0.343-0.017,0.562-0.052c0.219-0.035,0.42-0.087,0.604-0.158l0.212,0.84c-0.241,0.098-0.537,0.178-0.89,0.242
			c-0.354,0.063-0.657,0.094-0.912,0.094c-0.593,0-1.07-0.179-1.43-0.536s-0.541-0.836-0.541-1.438V69.464z"/>
		<path fill="#040000" d="M271.603,71.396v-1.932h1.06v1.932H271.603z M271.603,84.796V73.875h1.06v10.921H271.603z"/>
		<path fill="#040000" d="M281.487,84.964c-0.763,0-1.462-0.157-2.098-0.473c-0.636-0.315-1.187-0.735-1.653-1.26
			c-0.466-0.525-0.827-1.124-1.081-1.795c-0.254-0.672-0.381-1.365-0.381-2.08c0-0.742,0.124-1.456,0.371-2.142
			c0.247-0.686,0.597-1.292,1.049-1.817c0.452-0.525,0.993-0.941,1.621-1.25s1.317-0.462,2.066-0.462
			c0.96,0,1.798,0.249,2.511,0.746s1.325,1.103,1.833,1.816v-2.373h0.954v11.131c0,0.742-0.141,1.393-0.424,1.953
			s-0.661,1.026-1.134,1.397c-0.473,0.371-1.024,0.651-1.653,0.84c-0.629,0.189-1.29,0.284-1.981,0.284
			c-0.636,0-1.208-0.06-1.717-0.178c-0.508-0.119-0.957-0.288-1.346-0.504c-0.389-0.217-0.734-0.483-1.038-0.798
			c-0.304-0.315-0.569-0.662-0.795-1.04l0.721-0.483c0.438,0.742,1.031,1.285,1.78,1.628c0.749,0.343,1.547,0.515,2.395,0.515
			c0.565,0,1.098-0.077,1.6-0.231c0.501-0.154,0.939-0.381,1.314-0.683c0.374-0.301,0.671-0.675,0.89-1.124
			c0.219-0.448,0.329-0.973,0.329-1.575v-2.394c-0.452,0.7-1.053,1.267-1.801,1.701C283.069,84.748,282.292,84.964,281.487,84.964z
			 M281.741,84.062c0.466,0,0.918-0.087,1.356-0.263c0.438-0.175,0.837-0.402,1.198-0.683c0.36-0.28,0.66-0.595,0.9-0.945
			c0.24-0.35,0.381-0.7,0.424-1.05v-3.592c-0.169-0.42-0.396-0.809-0.678-1.166s-0.604-0.662-0.964-0.914
			c-0.36-0.252-0.749-0.452-1.166-0.599c-0.417-0.147-0.837-0.221-1.261-0.221c-0.664,0-1.257,0.14-1.78,0.42
			c-0.522,0.28-0.964,0.645-1.324,1.092c-0.36,0.448-0.636,0.956-0.827,1.523c-0.19,0.567-0.286,1.138-0.286,1.711
			c0,0.63,0.113,1.226,0.339,1.786c0.226,0.56,0.54,1.057,0.943,1.491s0.869,0.777,1.399,1.029S281.119,84.062,281.741,84.062z"/>
		<path fill="#040000" d="M295.702,85.006c-0.777,0-1.498-0.15-2.162-0.452c-0.664-0.301-1.24-0.714-1.727-1.239
			c-0.487-0.525-0.869-1.131-1.145-1.817s-0.413-1.421-0.413-2.206c0-0.77,0.138-1.494,0.413-2.174
			c0.275-0.679,0.653-1.274,1.134-1.785c0.48-0.511,1.052-0.914,1.717-1.208c0.664-0.294,1.377-0.441,2.14-0.441
			c0.777,0,1.494,0.15,2.151,0.451c0.657,0.301,1.226,0.708,1.706,1.218c0.48,0.511,0.858,1.106,1.134,1.785
			c0.275,0.68,0.414,1.397,0.414,2.153c0,0.07-0.004,0.158-0.011,0.263c-0.007,0.105-0.011,0.171-0.011,0.2h-9.685
			c0.042,0.63,0.19,1.215,0.445,1.753c0.254,0.54,0.576,1.005,0.964,1.397c0.388,0.392,0.837,0.7,1.346,0.924
			c0.509,0.224,1.052,0.336,1.632,0.336c0.381,0,0.759-0.053,1.134-0.158c0.374-0.105,0.72-0.249,1.038-0.431
			c0.318-0.182,0.601-0.402,0.848-0.662c0.247-0.259,0.441-0.542,0.583-0.851l0.933,0.252c-0.17,0.392-0.406,0.753-0.71,1.082
			c-0.304,0.329-0.657,0.612-1.06,0.851c-0.403,0.238-0.845,0.423-1.325,0.557C296.705,84.94,296.211,85.006,295.702,85.006z
			 M300.025,78.916c-0.042-0.644-0.188-1.232-0.435-1.764s-0.565-0.991-0.954-1.376c-0.389-0.385-0.837-0.686-1.346-0.903
			c-0.509-0.217-1.053-0.326-1.632-0.326c-0.58,0-1.123,0.109-1.632,0.326c-0.508,0.217-0.957,0.518-1.346,0.903
			c-0.389,0.385-0.699,0.848-0.932,1.386c-0.233,0.54-0.371,1.124-0.414,1.754H300.025z"/>
		<path fill="#040000" d="M313.423,84.796h-1.06v-6.091c0-1.414-0.201-2.443-0.604-3.087c-0.402-0.644-1.049-0.966-1.939-0.966
			c-0.466,0-0.929,0.084-1.388,0.252s-0.883,0.406-1.271,0.714s-0.731,0.669-1.028,1.082c-0.296,0.413-0.516,0.858-0.657,1.333
			v6.763h-1.06V73.875h0.975v2.604c0.226-0.42,0.509-0.801,0.848-1.145c0.339-0.343,0.713-0.637,1.124-0.882
			c0.41-0.245,0.851-0.434,1.324-0.567c0.473-0.133,0.957-0.199,1.452-0.199c1.201,0,2.048,0.417,2.543,1.25
			s0.742,2.027,0.742,3.581V84.796z"/>
		<path fill="#040000" d="M316.898,79.293c0-0.77,0.134-1.498,0.402-2.184c0.269-0.686,0.646-1.281,1.134-1.785
			c0.488-0.504,1.063-0.903,1.728-1.197c0.664-0.294,1.391-0.441,2.183-0.441c1.003,0,1.882,0.224,2.638,0.672
			c0.756,0.448,1.332,1.071,1.728,1.869l-1.039,0.336c-0.325-0.602-0.792-1.074-1.399-1.417c-0.607-0.343-1.271-0.515-1.992-0.515
			c-0.608,0-1.173,0.119-1.695,0.357c-0.523,0.238-0.979,0.567-1.367,0.987s-0.692,0.914-0.911,1.481
			c-0.219,0.567-0.329,1.18-0.329,1.837c0,0.659,0.117,1.278,0.35,1.859c0.233,0.581,0.544,1.085,0.933,1.512
			c0.389,0.427,0.844,0.767,1.367,1.019c0.523,0.252,1.081,0.378,1.674,0.378c0.381,0,0.759-0.056,1.134-0.168
			c0.374-0.112,0.721-0.259,1.039-0.441c0.318-0.182,0.593-0.396,0.826-0.641c0.233-0.245,0.392-0.5,0.477-0.767l1.039,0.294
			c-0.142,0.378-0.357,0.732-0.646,1.061s-0.632,0.612-1.028,0.851s-0.83,0.423-1.303,0.557c-0.474,0.133-0.964,0.199-1.473,0.199
			c-0.777,0-1.498-0.15-2.162-0.452c-0.664-0.301-1.24-0.714-1.727-1.239c-0.487-0.525-0.873-1.131-1.155-1.817
			C317.04,80.813,316.898,80.078,316.898,79.293z"/>
		<path fill="#040000" d="M334.77,85.006c-0.777,0-1.498-0.15-2.162-0.452c-0.664-0.301-1.24-0.714-1.727-1.239
			c-0.487-0.525-0.869-1.131-1.145-1.817s-0.413-1.421-0.413-2.206c0-0.77,0.138-1.494,0.413-2.174
			c0.275-0.679,0.653-1.274,1.134-1.785c0.48-0.511,1.052-0.914,1.717-1.208c0.664-0.294,1.377-0.441,2.14-0.441
			c0.777,0,1.494,0.15,2.151,0.451c0.657,0.301,1.226,0.708,1.706,1.218c0.48,0.511,0.858,1.106,1.134,1.785
			c0.275,0.68,0.414,1.397,0.414,2.153c0,0.07-0.004,0.158-0.011,0.263c-0.007,0.105-0.011,0.171-0.011,0.2h-9.685
			c0.042,0.63,0.19,1.215,0.445,1.753c0.254,0.54,0.576,1.005,0.964,1.397c0.388,0.392,0.837,0.7,1.346,0.924
			c0.509,0.224,1.052,0.336,1.632,0.336c0.381,0,0.759-0.053,1.134-0.158c0.374-0.105,0.72-0.249,1.038-0.431
			c0.318-0.182,0.601-0.402,0.848-0.662c0.247-0.259,0.441-0.542,0.583-0.851l0.933,0.252c-0.17,0.392-0.406,0.753-0.71,1.082
			c-0.304,0.329-0.657,0.612-1.06,0.851c-0.403,0.238-0.845,0.423-1.325,0.557C335.772,84.94,335.278,85.006,334.77,85.006z
			 M339.093,78.916c-0.042-0.644-0.188-1.232-0.435-1.764s-0.565-0.991-0.954-1.376c-0.389-0.385-0.837-0.686-1.346-0.903
			c-0.509-0.217-1.053-0.326-1.632-0.326c-0.58,0-1.123,0.109-1.632,0.326c-0.508,0.217-0.957,0.518-1.346,0.903
			c-0.389,0.385-0.699,0.848-0.932,1.386c-0.233,0.54-0.371,1.124-0.414,1.754H339.093z"/>
		<path fill="#3312BD" d="M364.332,84.796V71.9l-5.934,10.061h-0.678L351.786,71.9v12.896h-1.081V69.884h1.081l6.273,10.669
			l6.273-10.669h1.081v14.912H364.332z"/>
		<path d="M372.817,85.006c-0.509,0-0.985-0.087-1.431-0.263c-0.445-0.175-0.833-0.413-1.166-0.714
			c-0.332-0.301-0.59-0.658-0.773-1.071c-0.184-0.413-0.275-0.857-0.275-1.333s0.113-0.91,0.339-1.302
			c0.226-0.392,0.544-0.731,0.954-1.019s0.894-0.511,1.452-0.672c0.558-0.161,1.176-0.241,1.854-0.241
			c0.593,0,1.193,0.052,1.801,0.157c0.607,0.105,1.151,0.249,1.632,0.431v-1.071c0-1.036-0.297-1.858-0.89-2.468
			c-0.593-0.609-1.399-0.914-2.416-0.914c-0.551,0-1.127,0.112-1.727,0.336c-0.601,0.224-1.205,0.546-1.812,0.966l-0.424-0.714
			c1.427-0.952,2.769-1.428,4.026-1.428c1.328,0,2.377,0.381,3.147,1.145s1.155,1.817,1.155,3.161v5.335
			c0,0.35,0.148,0.525,0.445,0.525v0.945c-0.071,0.014-0.138,0.021-0.201,0.021s-0.124,0-0.18,0c-0.254,0-0.487-0.087-0.699-0.263
			c-0.212-0.175-0.318-0.402-0.318-0.683v-0.903c-0.509,0.658-1.155,1.162-1.939,1.512
			C374.586,84.831,373.735,85.006,372.817,85.006z M373.029,84.167c0.819,0,1.575-0.15,2.268-0.452
			c0.692-0.301,1.208-0.71,1.547-1.229c0.24-0.28,0.36-0.56,0.36-0.84v-1.932c-1.074-0.392-2.176-0.588-3.306-0.588
			c-1.102,0-1.992,0.224-2.67,0.672c-0.678,0.448-1.018,1.036-1.018,1.764c0,0.364,0.071,0.707,0.212,1.029s0.339,0.598,0.594,0.83
			c0.254,0.231,0.554,0.413,0.9,0.546C372.262,84.1,372.633,84.167,373.029,84.167z"/>
		<path d="M391.495,84.796h-1.06v-6.091c0-1.414-0.201-2.443-0.604-3.087c-0.402-0.644-1.049-0.966-1.939-0.966
			c-0.466,0-0.929,0.084-1.388,0.252s-0.883,0.406-1.271,0.714s-0.731,0.669-1.028,1.082c-0.296,0.413-0.516,0.858-0.657,1.333
			v6.763h-1.06V73.875h0.975v2.604c0.226-0.42,0.509-0.801,0.848-1.145c0.339-0.343,0.713-0.637,1.124-0.882
			c0.41-0.245,0.851-0.434,1.324-0.567c0.473-0.133,0.957-0.199,1.452-0.199c1.201,0,2.048,0.417,2.543,1.25
			s0.742,2.027,0.742,3.581V84.796z"/>
		<path d="M398.362,85.006c-0.509,0-0.985-0.087-1.431-0.263c-0.445-0.175-0.833-0.413-1.166-0.714
			c-0.332-0.301-0.59-0.658-0.773-1.071c-0.184-0.413-0.275-0.857-0.275-1.333s0.113-0.91,0.339-1.302
			c0.226-0.392,0.544-0.731,0.954-1.019s0.894-0.511,1.452-0.672c0.558-0.161,1.176-0.241,1.854-0.241
			c0.593,0,1.193,0.052,1.801,0.157c0.607,0.105,1.151,0.249,1.631,0.431v-1.071c0-1.036-0.297-1.858-0.89-2.468
			c-0.593-0.609-1.399-0.914-2.416-0.914c-0.551,0-1.127,0.112-1.727,0.336c-0.601,0.224-1.205,0.546-1.812,0.966l-0.424-0.714
			c1.427-0.952,2.769-1.428,4.026-1.428c1.328,0,2.377,0.381,3.146,1.145c0.771,0.763,1.156,1.817,1.156,3.161v5.335
			c0,0.35,0.148,0.525,0.445,0.525v0.945c-0.072,0.014-0.139,0.021-0.203,0.021c-0.063,0-0.123,0-0.18,0
			c-0.254,0-0.486-0.087-0.699-0.263c-0.211-0.175-0.318-0.402-0.318-0.683v-0.903c-0.508,0.658-1.154,1.162-1.938,1.512
			C400.131,84.831,399.28,85.006,398.362,85.006z M398.574,84.167c0.819,0,1.575-0.15,2.268-0.452
			c0.692-0.301,1.208-0.71,1.547-1.229c0.24-0.28,0.359-0.56,0.359-0.84v-1.932c-1.074-0.392-2.175-0.588-3.306-0.588
			c-1.102,0-1.992,0.224-2.67,0.672c-0.678,0.448-1.018,1.036-1.018,1.764c0,0.364,0.071,0.707,0.212,1.029s0.339,0.598,0.594,0.83
			c0.254,0.231,0.554,0.413,0.9,0.546C397.807,84.1,398.178,84.167,398.574,84.167z"/>
		<path d="M412.463,84.964c-0.764,0-1.463-0.157-2.098-0.473c-0.637-0.315-1.188-0.735-1.654-1.26
			c-0.465-0.525-0.826-1.124-1.08-1.795c-0.254-0.672-0.381-1.365-0.381-2.08c0-0.742,0.123-1.456,0.371-2.142
			c0.246-0.686,0.596-1.292,1.049-1.817c0.451-0.525,0.992-0.941,1.621-1.25s1.316-0.462,2.066-0.462
			c0.961,0,1.797,0.249,2.512,0.746c0.713,0.497,1.324,1.103,1.832,1.816v-2.373h0.953v11.131c0,0.742-0.141,1.393-0.424,1.953
			c-0.281,0.56-0.66,1.026-1.133,1.397c-0.475,0.371-1.025,0.651-1.654,0.84c-0.627,0.189-1.289,0.284-1.98,0.284
			c-0.637,0-1.207-0.06-1.717-0.178c-0.508-0.119-0.957-0.288-1.346-0.504c-0.389-0.217-0.734-0.483-1.039-0.798
			c-0.303-0.315-0.568-0.662-0.793-1.04l0.719-0.483c0.439,0.742,1.031,1.285,1.781,1.628c0.748,0.343,1.547,0.515,2.395,0.515
			c0.564,0,1.098-0.077,1.6-0.231c0.502-0.154,0.939-0.381,1.314-0.683c0.373-0.301,0.67-0.675,0.891-1.124
			c0.219-0.448,0.328-0.973,0.328-1.575v-2.394c-0.453,0.7-1.053,1.267-1.801,1.701C414.045,84.748,413.268,84.964,412.463,84.964z
			 M412.717,84.062c0.467,0,0.918-0.087,1.357-0.263c0.438-0.175,0.836-0.402,1.197-0.683c0.359-0.28,0.66-0.595,0.9-0.945
			c0.24-0.35,0.381-0.7,0.424-1.05v-3.592c-0.17-0.42-0.396-0.809-0.678-1.166c-0.283-0.357-0.605-0.662-0.965-0.914
			c-0.361-0.252-0.75-0.452-1.166-0.599s-0.836-0.221-1.26-0.221c-0.666,0-1.258,0.14-1.781,0.42
			c-0.523,0.28-0.965,0.645-1.324,1.092c-0.359,0.448-0.637,0.956-0.826,1.523c-0.191,0.567-0.287,1.138-0.287,1.711
			c0,0.63,0.113,1.226,0.34,1.786s0.541,1.057,0.943,1.491s0.869,0.777,1.398,1.029S412.096,84.062,412.717,84.062z"/>
		<path d="M426.678,85.006c-0.777,0-1.498-0.15-2.162-0.452c-0.664-0.301-1.238-0.714-1.727-1.239
			c-0.488-0.525-0.869-1.131-1.145-1.817s-0.414-1.421-0.414-2.206c0-0.77,0.139-1.494,0.414-2.174
			c0.275-0.679,0.654-1.274,1.135-1.785c0.479-0.511,1.051-0.914,1.715-1.208s1.379-0.441,2.141-0.441
			c0.777,0,1.494,0.15,2.152,0.451c0.656,0.301,1.225,0.708,1.705,1.218c0.48,0.511,0.857,1.106,1.135,1.785
			c0.275,0.68,0.412,1.397,0.412,2.153c0,0.07-0.004,0.158-0.01,0.263c-0.008,0.105-0.012,0.171-0.012,0.2h-9.684
			c0.041,0.63,0.189,1.215,0.445,1.753c0.254,0.54,0.574,1.005,0.963,1.397s0.838,0.7,1.346,0.924
			c0.51,0.224,1.053,0.336,1.633,0.336c0.381,0,0.758-0.053,1.133-0.158s0.721-0.249,1.039-0.431c0.318-0.182,0.6-0.402,0.848-0.662
			c0.246-0.259,0.441-0.542,0.582-0.851l0.934,0.252c-0.17,0.392-0.406,0.753-0.711,1.082c-0.303,0.329-0.656,0.612-1.059,0.851
			s-0.846,0.423-1.324,0.557C427.682,84.94,427.186,85.006,426.678,85.006z M431,78.916c-0.041-0.644-0.186-1.232-0.434-1.764
			s-0.564-0.991-0.953-1.376c-0.389-0.385-0.838-0.686-1.346-0.903c-0.51-0.217-1.053-0.326-1.633-0.326
			c-0.578,0-1.123,0.109-1.631,0.326c-0.51,0.217-0.957,0.518-1.346,0.903c-0.389,0.385-0.699,0.848-0.934,1.386
			c-0.232,0.54-0.369,1.124-0.412,1.754H431z"/>
		<path d="M440.605,74.82c-1.002,0.028-1.871,0.319-2.605,0.872c-0.734,0.554-1.25,1.313-1.547,2.279v6.826h-1.061V73.875h0.996
			v2.688c0.381-0.77,0.887-1.396,1.516-1.879c0.629-0.483,1.303-0.76,2.023-0.83c0.141,0,0.27-0.003,0.381-0.011
			c0.113-0.007,0.213-0.01,0.297-0.01V74.82z"/>
	</g>
	<g>
		<g>
			
				<radialGradient id="SVGID_13_" cx="-2448.4395" cy="-1381.373" r="164.702" gradientTransform="matrix(0.1698 0 0 0.1698 448.6419 292.5684)" gradientUnits="userSpaceOnUse">
				<stop  offset="0.1131" style="stop-color:#A8CAE7"/>
				<stop  offset="0.4167" style="stop-color:#67ABD8"/>
				<stop  offset="0.75" style="stop-color:#3C529A"/>
				<stop  offset="0.9702" style="stop-color:#1A2D78"/>
			</radialGradient>
			<path fill="url(#SVGID_13_)" d="M55.971,76.541c0-7.51-6.096-13.204-13.596-13.595c-13.085-0.696-18.307-35.299,8.816-35.711
				c-2.927-0.872-6.028-1.346-9.241-1.346c-17.741,0-32.127,14.38-32.127,32.118c0,17.746,14.386,32.127,32.127,32.127
				c0.085,0,0.153-0.002,0.231-0.002c0.063,0.002,0.125,0.002,0.193,0.002c0.278,0,0.549-0.009,0.818-0.023
				c0.023-0.004,0.047,0,0.066-0.004c0.03,0.004,0.059,0,0.088-0.012C50.402,89.596,55.971,83.722,55.971,76.541z"/>
			<linearGradient id="SVGID_14_" gradientUnits="userSpaceOnUse" x1="28.2773" y1="58.0107" x2="74.4199" y2="58.0107">
				<stop  offset="0.131" style="stop-color:#0E8A3B"/>
				<stop  offset="0.7857" style="stop-color:#BED52B"/>
			</linearGradient>
			<path fill="url(#SVGID_14_)" d="M28.277,39.48c0,7.509,6.098,13.223,13.595,13.595c31.005,1.559,18.31,35.301-8.813,35.716
				c2.928,0.868,6.023,1.341,9.24,1.341c17.741,0,32.121-14.381,32.121-32.127c0-17.737-14.38-32.118-32.121-32.118
				c-0.078,0-0.156,0-0.232,0c-0.062,0-0.124,0-0.194,0c-0.276,0-0.55,0.011-0.817,0.024c-0.023,0-0.05,0-0.07,0
				c-0.025,0-0.059,0.005-0.084,0.015C33.846,26.422,28.277,32.297,28.277,39.48z"/>
			
				<radialGradient id="SVGID_15_" cx="-2515.3169" cy="-1635.2041" r="67.7242" gradientTransform="matrix(0.1698 0 0 0.1698 448.6419 292.5684)" gradientUnits="userSpaceOnUse">
				<stop  offset="0.1131" style="stop-color:#A8CAE7"/>
				<stop  offset="0.4167" style="stop-color:#67ABD8"/>
				<stop  offset="0.75" style="stop-color:#3C529A"/>
				<stop  offset="0.9702" style="stop-color:#1A2D78"/>
			</radialGradient>
			<path fill="url(#SVGID_15_)" d="M32.245,18.13c0,3.882-3.138,7.023-7.019,7.023c-3.874,0-7.023-3.141-7.023-7.023
				c0-3.874,3.149-7.018,7.023-7.018C29.107,11.112,32.245,14.257,32.245,18.13z"/>
			
				<radialGradient id="SVGID_16_" cx="-2390.2163" cy="-1685.8486" r="82.1193" gradientTransform="matrix(0.1698 0 0 0.1698 448.6419 292.5684)" gradientUnits="userSpaceOnUse">
				<stop  offset="0.006" style="stop-color:#E9E629"/>
				<stop  offset="0.4224" style="stop-color:#87B828"/>
				<stop  offset="0.9049" style="stop-color:#008A40"/>
			</radialGradient>
			<path fill="url(#SVGID_16_)" d="M52.725,10.299c0,3.88-3.145,7.022-7.025,7.022c-3.876,0-7.023-3.142-7.023-7.022
				c0-3.878,3.147-7.019,7.023-7.019C49.58,3.28,52.725,6.42,52.725,10.299z"/>
			
				<radialGradient id="SVGID_17_" cx="-2419.5996" cy="-1596.6563" r="163.4613" gradientTransform="matrix(0.1698 0 0 0.1698 448.6419 292.5684)" gradientUnits="userSpaceOnUse">
				<stop  offset="0.255" style="stop-color:#FFFFFF"/>
				<stop  offset="1" style="stop-color:#FFFFFF;stop-opacity:0"/>
			</radialGradient>
			<path opacity="0.78" fill="url(#SVGID_17_)" d="M61.504,39.208c-0.307,5.866-7.632,10.244-16.358,9.787
				c-8.728-0.456-15.554-5.579-15.246-11.442c0.309-5.864,7.63-10.254,16.355-9.791C54.98,28.223,61.81,33.34,61.504,39.208z"/>
			
				<radialGradient id="SVGID_18_" cx="4338.5088" cy="826.4863" r="163.4091" gradientTransform="matrix(-0.1652 -0.0395 0.0395 -0.1652 720.7321 400.8717)" gradientUnits="userSpaceOnUse">
				<stop  offset="0.255" style="stop-color:#FFFFFF"/>
				<stop  offset="1" style="stop-color:#FFFFFF;stop-opacity:0"/>
			</radialGradient>
			<path opacity="0.48" fill="url(#SVGID_18_)" d="M17.723,70.188c1.664-5.633,9.803-8.194,18.186-5.716
				c8.382,2.468,13.83,9.038,12.172,14.671c-1.666,5.632-9.811,8.194-18.193,5.721C21.51,82.384,16.064,75.824,17.723,70.188z"/>
		</g>
	</g>
	<g>
		<g>
			<g>
				<path fill="#3312BD" d="M152.235,42.062c0,9.242-1.759,16.723-3.927,16.723s-3.93-7.48-3.93-16.723
					c0-9.235,1.762-16.724,3.93-16.724S152.235,32.827,152.235,42.062z"/>
				<g>
					<path fill="#3312BD" d="M153.113,17.348c0,2.667-2.149,4.8-4.805,4.8s-4.806-2.134-4.806-4.8c0-2.674,2.15-4.805,4.806-4.805
						S153.113,14.673,153.113,17.348z"/>
				</g>
			</g>
			<path fill="#403F41" d="M199.206,26.07h-6.72c-0.089,0-0.169,0.038-0.219,0.102l-13.229,16.858l-13.229-16.858
				c-0.052-0.064-0.132-0.102-0.217-0.102h-6.723c-0.147,0-0.268,0.107-0.268,0.242v32.23c0,0.135,0.12,0.242,0.268,0.242h4.479
				c0.148,0,0.27-0.107,0.27-0.242V31.604l14.005,18.096c0.052,0.064,0.133,0.101,0.22,0.101h2.388c0.088,0,0.169-0.037,0.219-0.101
				l14.007-18.096v26.939c0,0.135,0.121,0.242,0.27,0.242h4.479c0.147,0,0.269-0.107,0.269-0.242v-32.23
				C199.475,26.178,199.354,26.07,199.206,26.07z"/>
			<path fill="#403F41" d="M279.826,26.092h-4.482c-0.148,0-0.269,0.108-0.269,0.242v26.403l-22.376-26.551
				c-0.049-0.059-0.125-0.094-0.211-0.094h-6.275c-0.146,0-0.266,0.108-0.266,0.242v32.208c0,0.135,0.119,0.242,0.266,0.242h4.482
				c0.149,0,0.268-0.107,0.268-0.242V31.711l22.374,26.976c0.05,0.062,0.13,0.097,0.215,0.097h6.274
				c0.146,0,0.266-0.107,0.266-0.242V26.334C280.092,26.201,279.973,26.092,279.826,26.092z"/>
			<path fill="#403F41" d="M344.566,26.089c-14.303,0-21.556,5.768-21.556,17.147c0,12.299,14.099,15.548,21.556,15.548
				c6.013,0,11.347-1.709,15.855-5.079c0.061-0.047,0.097-0.116,0.097-0.186V41.683c0-0.136-0.12-0.242-0.267-0.242h-15.686
				c-0.148,0-0.27,0.106-0.27,0.242v3.614c0,0.135,0.121,0.244,0.27,0.244h10.936v5.868c-2.907,2.575-6.588,3.881-10.936,3.881
				c-4.81,0-15.076-2.954-16.094-12.078c-0.332-2.963,0.691-5.664,3.039-8.022c3.838-3.864,9.944-5.6,13.055-5.6
				c5.137,0,10.355,2.008,15.512,5.968c0.079,0.063,0.193,0.077,0.285,0.035c0.094-0.038,0.155-0.125,0.155-0.219v-4.016
				c0-0.065-0.03-0.129-0.08-0.173C356.666,27.802,351.325,26.089,344.566,26.089z"/>
			<g>
				<path fill="#403F41" d="M399.626,54.634h-27.869v-9.043h22.753c0.148,0,0.266-0.109,0.266-0.243v-3.665
					c0-0.136-0.117-0.242-0.266-0.242h-28.134c-0.147,0-0.267,0.106-0.267,0.242v16.86c0,0.135,0.119,0.242,0.267,0.242h33.25
					c0.147,0,0.269-0.107,0.269-0.242v-3.667C399.895,54.74,399.773,54.634,399.626,54.634z"/>
				<path fill="#403F41" d="M399.626,26.07h-33.25c-0.147,0-0.267,0.107-0.267,0.242v3.667c0,0.134,0.119,0.242,0.267,0.242h33.25
					c0.147,0,0.269-0.108,0.269-0.242v-3.667C399.895,26.178,399.773,26.07,399.626,26.07z"/>
			</g>
			<g>
				<path fill="#403F41" d="M137.744,54.634h-27.869v-9.043h22.754c0.146,0,0.267-0.109,0.267-0.243v-3.665
					c0-0.136-0.12-0.242-0.267-0.242h-28.135c-0.147,0-0.268,0.106-0.268,0.242v16.86c0,0.135,0.12,0.242,0.268,0.242h33.25
					c0.147,0,0.268-0.107,0.268-0.242v-3.667C138.012,54.74,137.892,54.634,137.744,54.634z"/>
				<path fill="#403F41" d="M137.744,26.07h-33.25c-0.147,0-0.268,0.107-0.268,0.242v3.667c0,0.134,0.12,0.242,0.268,0.242h33.25
					c0.147,0,0.268-0.108,0.268-0.242v-3.667C138.012,26.178,137.892,26.07,137.744,26.07z"/>
			</g>
			<path fill="#403F41" d="M226.07,26.07h-6.722c-0.104,0-0.2,0.058-0.244,0.145c-0.042,0.09-0.022,0.19,0.048,0.264l3.313,3.228
				l7.719,15.737h-15.227l-3.4-4.095c-0.06-0.069-0.157-0.099-0.248-0.093c-0.096,0.01-0.177,0.065-0.213,0.147l-7.791,17.048
				c-0.035,0.073-0.025,0.159,0.023,0.226c0.051,0.068,0.135,0.107,0.223,0.107h4.705c0.1,0,0.192-0.051,0.238-0.132l4.998-9.058
				h18.434l5,9.058c0.044,0.082,0.135,0.132,0.236,0.132h4.708c0.09,0,0.175-0.039,0.224-0.109c0.048-0.068,0.054-0.154,0.02-0.231
				l-15.8-32.229C226.272,26.127,226.178,26.07,226.07,26.07z"/>
			<path fill="#403F41" d="M306.693,26.07h-6.723c-0.105,0-0.201,0.058-0.244,0.145c-0.041,0.09-0.022,0.19,0.047,0.264l3.313,3.228
				l7.719,15.737H295.58l-3.402-4.095c-0.06-0.069-0.15-0.099-0.246-0.093c-0.096,0.01-0.178,0.065-0.215,0.147l-7.791,17.048
				c-0.033,0.073-0.024,0.159,0.025,0.226c0.047,0.068,0.133,0.107,0.221,0.107h4.705c0.102,0,0.192-0.051,0.237-0.132l4.999-9.058
				h18.434l4.998,9.058c0.048,0.082,0.139,0.132,0.24,0.132h4.705c0.092,0,0.176-0.039,0.225-0.109
				c0.05-0.068,0.057-0.154,0.018-0.231l-15.797-32.229C306.894,26.127,306.797,26.07,306.693,26.07z"/>
			<path fill="#403F41" d="M441.866,58.426l-17.095-14.134c3.211-0.487,5.916-1.488,8.05-2.976c2.29-1.59,3.449-3.719,3.449-6.329
				c0-5.898-6.876-8.891-20.438-8.891h-10.082c-0.148,0-0.268,0.087-0.268,0.198v3.111c0,0.052,0.03,0.104,0.082,0.142
				c0.054,0.037,0.119,0.055,0.194,0.055l4.472-0.102h6.797c9.142,0,13.777,2.016,13.777,5.987c0,3.971-4.636,5.985-13.777,5.985
				l-11.277-0.009c-0.073,0-0.139,0.021-0.186,0.058c-0.052,0.038-0.082,0.088-0.082,0.14v16.925c0,0.109,0.119,0.197,0.268,0.197
				h4.48c0.148,0,0.269-0.088,0.269-0.197V44.879l8.422-0.034l17.182,13.939h5.601c0.115,0,0.219-0.055,0.255-0.135
				C441.995,58.567,441.957,58.479,441.866,58.426z"/>
		</g>
	</g>
</g>
</svg>
